<svg xmlns="http://www.w3.org/2000/svg" width="184" height="494.053" viewBox="0 0 184 494.053">
  <path id="Subtração_1" data-name="Subtração 1" d="M233,574.844h0V80.791a144.357,144.357,0,0,1,107.124,91.083A142.141,142.141,0,0,1,349,221.286a138.784,138.784,0,0,1,27.8,20.424,132.345,132.345,0,0,1,21.466,26.323,125.616,125.616,0,0,1,13.831,31,123.633,123.633,0,0,1-2.085,75.422,127.207,127.207,0,0,1-19.458,35.629,135.511,135.511,0,0,1-29.694,28.2,141.751,141.751,0,0,1-37.691,18.669,142.222,142.222,0,0,1-28.989,71.861A144.763,144.763,0,0,1,233,574.844Z" transform="translate(-233 -80.791)" fill="#00bfa6"/>
</svg>
