<svg xmlns="http://www.w3.org/2000/svg" width="249.428" height="153.877" viewBox="0 0 249.428 153.877">
  <g id="undraw_texting_k35o" transform="translate(0 -0.012)">
    <path id="Caminho_740" data-name="Caminho 740" d="M19,245.448H260.053s21.132-27.355-3.741-55.474c-9.23-10.428-9.932-23.322-7.167-35.417,7.474-32.7-22.437-61.631-54.891-53.139-.618.163-1.243.328-1.872.5A160.948,160.948,0,0,1,88,95.214a44.33,44.33,0,0,0-19.49-3.6c-17.3.773-43.514,7.436-19.164,44.137C83.677,187.488,19,245.448,19,245.448Z" transform="translate(-19 -91.56)" fill="#00bfa6" opacity="0.1"/>
    <ellipse id="Elipse_226" data-name="Elipse 226" cx="4.83" cy="6.321" rx="4.83" ry="6.321" transform="translate(53.233 136.74)" fill="#3f3d56"/>
    <ellipse id="Elipse_227" data-name="Elipse 227" cx="4.83" cy="6.321" rx="4.83" ry="6.321" transform="translate(53.233 129.012)" fill="#3f3d56"/>
    <ellipse id="Elipse_228" data-name="Elipse 228" cx="4.83" cy="6.321" rx="4.83" ry="6.321" transform="translate(53.233 121.285)" fill="#3f3d56"/>
    <ellipse id="Elipse_229" data-name="Elipse 229" cx="4.83" cy="6.321" rx="4.83" ry="6.321" transform="translate(53.233 113.557)" fill="#3f3d56"/>
    <ellipse id="Elipse_230" data-name="Elipse 230" cx="4.83" cy="6.321" rx="4.83" ry="6.321" transform="translate(53.233 105.83)" fill="#3f3d56"/>
    <ellipse id="Elipse_231" data-name="Elipse 231" cx="4.83" cy="6.321" rx="4.83" ry="6.321" transform="translate(53.233 98.103)" fill="#3f3d56"/>
    <ellipse id="Elipse_232" data-name="Elipse 232" cx="4.83" cy="6.321" rx="4.83" ry="6.321" transform="translate(53.233 90.375)" fill="#3f3d56"/>
    <ellipse id="Elipse_233" data-name="Elipse 233" cx="2.683" cy="3.512" rx="2.683" ry="3.512" transform="translate(95.52 141.481)" fill="#3f3d56"/>
    <ellipse id="Elipse_234" data-name="Elipse 234" cx="2.683" cy="3.512" rx="2.683" ry="3.512" transform="translate(95.52 137.188)" fill="#3f3d56"/>
    <ellipse id="Elipse_235" data-name="Elipse 235" cx="2.683" cy="3.512" rx="2.683" ry="3.512" transform="translate(95.52 132.895)" fill="#3f3d56"/>
    <ellipse id="Elipse_236" data-name="Elipse 236" cx="2.683" cy="3.512" rx="2.683" ry="3.512" transform="translate(95.52 128.602)" fill="#3f3d56"/>
    <ellipse id="Elipse_237" data-name="Elipse 237" cx="2.683" cy="3.512" rx="2.683" ry="3.512" transform="translate(95.52 124.309)" fill="#3f3d56"/>
    <ellipse id="Elipse_238" data-name="Elipse 238" cx="2.683" cy="3.512" rx="2.683" ry="3.512" transform="translate(95.52 120.016)" fill="#3f3d56"/>
    <ellipse id="Elipse_239" data-name="Elipse 239" cx="2.683" cy="3.512" rx="2.683" ry="3.512" transform="translate(95.52 115.723)" fill="#3f3d56"/>
    <path id="Caminho_741" data-name="Caminho 741" d="M222.557,158.653a23.428,23.428,0,0,0,1.8-2.647l-12.688-2.084,13.725.1a23.182,23.182,0,0,0,.442-18.329l-18.415,9.552L224.4,132.758a23.135,23.135,0,1,0-38.208,25.891,23.166,23.166,0,0,0-2.642,4.224l16.472,8.558-17.561-5.9a23.141,23.141,0,0,0,3.731,21.725,23.133,23.133,0,1,0,36.366,0A23.142,23.142,0,0,0,222.557,158.653Z" transform="translate(-146.414 -114.838)" fill="#00bfa6"/>
    <path id="Caminho_742" data-name="Caminho 742" d="M181.24,361.032a23.03,23.03,0,0,0,4.952,14.3,23.133,23.133,0,1,0,36.366,0C225.658,371.4,181.24,358.435,181.24,361.032Z" transform="translate(-146.415 -302.913)" opacity="0.1"/>
    <path id="Caminho_743" data-name="Caminho 743" d="M408.17,374.335a15.166,15.166,0,0,1-1.2-1.764l8.459-1.391-9.151.069a15.454,15.454,0,0,1-.294-12.22l12.276,6.375-11.321-8.328a15.423,15.423,0,1,1,25.473,17.26,15.379,15.379,0,0,1,1.758,2.812l-10.982,5.705,11.709-3.926a15.423,15.423,0,0,1-2.486,14.485,15.423,15.423,0,1,1-24.256,0,15.431,15.431,0,0,1,0-19.072Z" transform="translate(-322.035 -294.035)" fill="#00bfa6"/>
    <path id="Caminho_744" data-name="Caminho 744" d="M435.731,509.18a15.363,15.363,0,0,1-3.3,9.537,15.423,15.423,0,1,1-24.256,0C406.118,516.1,435.731,507.463,435.731,509.18Z" transform="translate(-322.049 -419.353)" opacity="0.1"/>
    <path id="Caminho_745" data-name="Caminho 745" d="M19,741.11S44.87,716,53.825,724.444s46.766,10.7,50.25,10.2,23.88-1.492,35.323-.249,116.416-3.482,120.645,6.716Z" transform="translate(-19 -587.222)" fill="#3f3d56"/>
    <path id="Caminho_746" data-name="Caminho 746" d="M627.409,214.159H615.775a1.981,1.981,0,0,0,.429-1.245,2,2,0,0,0-.146-.745h5.366a1.99,1.99,0,1,0,0-3.98H589.349a2,2,0,0,0-1.99,1.99,1.952,1.952,0,0,0,.148.745h-5.366a1.992,1.992,0,0,0,0,3.982h11.634a1.975,1.975,0,0,0-.429,1.243,2,2,0,0,0,1.99,1.99h32.073a1.99,1.99,0,0,0,0-3.98Z" transform="translate(-459.749 -183.146)" fill="#00bfa6" opacity="0.1"/>
    <path id="Caminho_747" data-name="Caminho 747" d="M871.929,347.389H860.3a1.981,1.981,0,0,0,.44-1.245,1.959,1.959,0,0,0-.146-.745h5.366a1.99,1.99,0,1,0,0-3.98H833.872a2,2,0,0,0-1.99,1.99,1.949,1.949,0,0,0,.146.745h-5.366a1.992,1.992,0,0,0,0,3.982H838.3a1.974,1.974,0,0,0-.429,1.243,2,2,0,0,0,1.99,1.99h32.073a1.99,1.99,0,0,0,0-3.98Z" transform="translate(-651.783 -287.778)" fill="#00bfa6" opacity="0.1"/>
    <path id="Caminho_748" data-name="Caminho 748" d="M454.618,300.078H447.8a1.157,1.157,0,0,0,.258-.728,1.187,1.187,0,0,0-.086-.429h3.147a1.166,1.166,0,0,0,0-2.331h-18.81a1.17,1.17,0,0,0-1.166,1.166,1.146,1.146,0,0,0,.088.429H428.1a1.166,1.166,0,1,0,0,2.331h6.815a1.157,1.157,0,0,0-.258.728,1.17,1.17,0,0,0,1.166,1.168h18.8a1.168,1.168,0,0,0,0-2.333Z" transform="translate(-339.367 -252.571)" fill="#00bfa6" opacity="0.1"/>
    <path id="Caminho_749" data-name="Caminho 749" d="M707.1,743.07a5.1,5.1,0,0,1-.373,1.288,9.226,9.226,0,0,0,2.277.526.214.214,0,0,0,.146-.021c.058-.045.049-.135.041-.215a2.853,2.853,0,0,1,.236-1.236q.644-1.792,1.271-3.589a3.343,3.343,0,0,0-2.906.429C707.217,740.771,707.243,742.344,707.1,743.07Z" transform="translate(-559.108 -600.534)" fill="#a1616a"/>
    <path id="Caminho_750" data-name="Caminho 750" d="M757.949,751.115a.411.411,0,0,0-.039.159c0,.191.253.258.444.275a12.158,12.158,0,0,1,2.709.565c.107-.318-.043-.659-.047-.992a3.745,3.745,0,0,1,.442-1.307,5.994,5.994,0,0,0,.251-2.428c-.734.049-2.486-.29-2.9.47a6.379,6.379,0,0,0-.318,1.546A11.949,11.949,0,0,1,757.949,751.115Z" transform="translate(-599.302 -606.577)" fill="#a1616a"/>
    <path id="Caminho_751" data-name="Caminho 751" d="M712.536,611.182l-1.932.114a.554.554,0,0,0-.352.1.528.528,0,0,0-.131.337c-.258,1.932.2,3.9-.045,5.836-.1.76-.3,1.5-.455,2.25-.264,1.247-.408,2.516-.552,3.782a8.626,8.626,0,0,0-.073,1.9c.056.532.215,1.052.234,1.586a5.514,5.514,0,0,1-.326,1.854,20.172,20.172,0,0,1-1.2,2.977,14.788,14.788,0,0,0-1.14,2.533c-.4,1.421-.215,2.969-.689,4.366a2.183,2.183,0,0,0-.215,1.054,1.2,1.2,0,0,0,.994.878,3.529,3.529,0,0,0,1.393-.105,3.883,3.883,0,0,0,2.084-.906,3.816,3.816,0,0,0,.7-1.249c.35-.859.7-1.73,1.017-2.606a9.906,9.906,0,0,1,.494-1.213c.176-.335.4-.644.582-.979a9.953,9.953,0,0,0,.747-1.8c1.378-4.229,1.8-8.8,3.881-12.729.1-.187.112-.429.215-.605a6.257,6.257,0,0,1,.288,1.977,41.544,41.544,0,0,1-.11,4.566c-.086,1.108-.215,2.213-.24,3.325,0,.507,0,1.015.011,1.524v.414c.017.723.034,1.447.105,2.166.3,2.971-.633,5.86-.3,8.827a.514.514,0,0,0,.1.292c.144.155.4.071.595-.013a6.387,6.387,0,0,1,2.031-.506,1.37,1.37,0,0,0,.616-.137,1.259,1.259,0,0,0,.453-.942q.7-4.334,1.4-8.668a20.683,20.683,0,0,0,.266-2.089c.054-.91-.013-1.825.075-2.73a18.21,18.21,0,0,1,1.035-3.735c.2-.644.406-1.277.59-1.921s.354-1.312.5-1.973a9.534,9.534,0,0,0,.281-3.5,3.9,3.9,0,0,0-1.827-2.878,6.644,6.644,0,0,0-2.5-.571c-2.445-.268-4.881-.859-7.33-.644C713.38,611.371,712.974,611.156,712.536,611.182Z" transform="translate(-558.256 -499.634)" fill="#3f3d56"/>
    <path id="Caminho_752" data-name="Caminho 752" d="M697.255,766.546a2.753,2.753,0,0,0,.3-.644l.792-2.146A18.668,18.668,0,0,0,699,761.8a9.186,9.186,0,0,0,.262-2.43,9.052,9.052,0,0,1-2.385-.335,3.685,3.685,0,0,0-.906-.191,1.576,1.576,0,0,0-1.528,1.668,2.393,2.393,0,0,1,.034.391,1.221,1.221,0,0,1-.112.376l-.846,2.061a4.522,4.522,0,0,0-.429,1.589C693.027,766.851,696.038,768.3,697.255,766.546Z" transform="translate(-548.393 -615.598)" fill="#3f3d56"/>
    <path id="Caminho_753" data-name="Caminho 753" d="M750.392,770.209a3.683,3.683,0,0,0,0,.972,2.166,2.166,0,0,0,1.966,1.661,2.818,2.818,0,0,0,2.385-1.174,2.531,2.531,0,0,0,.4-.762,3.946,3.946,0,0,0,.133-.809l.341-3.613a3.281,3.281,0,0,0,0-1.717c-.215-.406-.736-.539-1.138-.691a4.474,4.474,0,0,0-2.108-.316c-1.251.105-1.239,1.382-1.427,2.4Q750.572,768.176,750.392,770.209Z" transform="translate(-593.373 -619.448)" fill="#3f3d56"/>
    <path id="Caminho_754" data-name="Caminho 754" d="M726.139,444.291c-.577.809-1.419,1.4-1.986,2.222a4.175,4.175,0,0,0-.732,2.544,4.764,4.764,0,0,1,0,1.387,2.466,2.466,0,0,1-.554.919,7.714,7.714,0,0,1-3.527,2.344c-.165.052-.371.163-.331.331a.341.341,0,0,0,.152.174l2.79,2a35.47,35.47,0,0,0,5.1,3.239,18.1,18.1,0,0,0,10.411,1.638,5.43,5.43,0,0,1-.826-2.361c-.107-1.009.073-2.026.054-3.042a7.861,7.861,0,0,0-.644-3.005c-.24-.552-.545-1.073-.73-1.646a8.523,8.523,0,0,1-.309-2.146l-.144-2.4a4.848,4.848,0,0,0-.2-1.316,3.261,3.261,0,0,0-.511-.906,5.686,5.686,0,0,0-4.2-2.046,4.569,4.569,0,0,0-2.235.191C726.929,442.791,726.612,443.634,726.139,444.291Z" transform="translate(-568.749 -366.9)" fill="#3f3d56"/>
    <path id="Caminho_755" data-name="Caminho 755" d="M736.919,488.551a1.6,1.6,0,0,1-1.007.936,4.746,4.746,0,0,1-1.4.215l-1.024.047a.446.446,0,0,0-.316.094.369.369,0,0,0-.09.23,2.273,2.273,0,0,0,.571,1.5,10.133,10.133,0,0,0,3.827,3.507,6.313,6.313,0,0,0,7.277-1.468.644.644,0,0,0,.2-.358.6.6,0,0,0-.309-.5c-.339-.251-.738-.414-1.073-.663a3.22,3.22,0,0,1-1.166-1.762,5.3,5.3,0,0,1-.1-2.136c-1.273-.363-2.66-.075-3.935-.429-.3-.082-.859-.395-1.172-.215S737.018,488.246,736.919,488.551Z" transform="translate(-579.795 -402.497)" fill="#a1616a"/>
    <path id="Caminho_756" data-name="Caminho 756" d="M736.919,488.551a1.6,1.6,0,0,1-1.007.936,4.746,4.746,0,0,1-1.4.215l-1.024.047a.446.446,0,0,0-.316.094.369.369,0,0,0-.09.23,2.273,2.273,0,0,0,.571,1.5,10.133,10.133,0,0,0,3.827,3.507,6.313,6.313,0,0,0,7.277-1.468.644.644,0,0,0,.2-.358.6.6,0,0,0-.309-.5c-.339-.251-.738-.414-1.073-.663a3.22,3.22,0,0,1-1.166-1.762,5.3,5.3,0,0,1-.1-2.136c-1.273-.363-2.66-.075-3.935-.429-.3-.082-.859-.395-1.172-.215S737.018,488.246,736.919,488.551Z" transform="translate(-579.795 -402.497)" opacity="0.1"/>
    <circle id="Elipse_240" data-name="Elipse 240" cx="4.287" cy="4.287" r="4.287" transform="translate(156.073 79.606)" fill="#a1616a"/>
    <path id="Caminho_757" data-name="Caminho 757" d="M738.194,497.445a14.065,14.065,0,0,1-2.46.8,4.735,4.735,0,0,1-2.554-.14,8.893,8.893,0,0,1-1.582-.9,6.755,6.755,0,0,0-2.911-1.176,1.961,1.961,0,0,0-1.417.3,1.932,1.932,0,0,0-.625,1.288,8.889,8.889,0,0,0,.318,3.061c.822,3.831,1.288,7.839.367,11.651-.483,2.024.039,4.13.109,6.21a7.432,7.432,0,0,0,.281,2.114,2.554,2.554,0,0,0,1.337,1.586,4.182,4.182,0,0,0,1.966.124,4.652,4.652,0,0,1,2.325.258c.507.236.981.644,1.535.595.283-.026.541-.172.822-.215a2.781,2.781,0,0,1,1.618.468A10.017,10.017,0,0,0,741.4,524.5c.723-1.7.35-3.617.429-5.465.032-.691.135-1.378.176-2.069a23.142,23.142,0,0,0-.032-2.5l-.262-5.624c-.075-1.53.706-3.029.644-4.557a13.8,13.8,0,0,0-.294-2.116c-.047-.236-.1-.47-.163-.7a8.464,8.464,0,0,0-3.13-3.849A.629.629,0,0,0,738.194,497.445Z" transform="translate(-574.715 -409.184)" fill="#00bfa6"/>
    <path id="Caminho_758" data-name="Caminho 758" d="M712.9,520.337a12.246,12.246,0,0,1-1.054,4.366,1.86,1.86,0,0,1-.779,1.105,1.617,1.617,0,0,1-1.288-.088,8.671,8.671,0,0,1-1.1-.509,1.524,1.524,0,0,0-1.2-.307c-.492.167-.644.779-.71,1.288a13.623,13.623,0,0,1-2.007-.122.377.377,0,0,1-.176-.056.372.372,0,0,1-.112-.24c-.069-.358-.14-.715-.215-1.073-.021-.112-.1-.26-.215-.215a29.846,29.846,0,0,0-.3-4.164,11.047,11.047,0,0,1,.022-2.114,20.474,20.474,0,0,1,.4-2.089,23.965,23.965,0,0,0,1-4.463,5.045,5.045,0,0,0-.058-.9q-.455-2.81-.906-5.624c-.077-.468-.152-.94-.262-1.4-.082-.343-.159-.676-.247-1.007-.054-.2-.112-.4-.178-.6l1.717-4.722a8.668,8.668,0,0,1,.472-1.131,4.426,4.426,0,0,1,1.921-1.874,1.733,1.733,0,0,0,.644-.429c.084-.109.135-.243.215-.356a1.418,1.418,0,0,1,1.44-.369,1.963,1.963,0,0,1,1.254.644,2.528,2.528,0,0,1,.275.558q.515,1.249,1.035,2.5a.946.946,0,0,1,.429.859c0,.618-.088,1.234-.062,1.852a.469.469,0,0,0,.013.133c.077.556.47,1.024.6,1.582.511,2.136-.234,4.334-.672,6.493-.017.086-.034.17-.049.255a19.5,19.5,0,0,0-.343,3.806,10.884,10.884,0,0,0,.112,1.584c.071.461.185.917.236,1.382a12.784,12.784,0,0,1,0,1.945C712.7,517.993,712.887,519.163,712.9,520.337Z" transform="translate(-556.587 -406.977)" fill="#454b69"/>
    <path id="Caminho_759" data-name="Caminho 759" d="M749.9,528.784a1.849,1.849,0,0,1,.245.859.571.571,0,0,1-.129.356.537.537,0,0,1-.492.135,1.35,1.35,0,0,1-.479-.215,1.11,1.11,0,0,1-.457-.459,1.2,1.2,0,0,1-.069-.288l-.114-.726a.928.928,0,0,1,0-.429c.1-.3.53-.826.859-.569S749.741,528.44,749.9,528.784Z" transform="translate(-591.82 -433.821)" fill="#454b69"/>
    <path id="Caminho_760" data-name="Caminho 760" d="M784.037,522.626c-.127-.331-.5-.47-.814-.644a3.8,3.8,0,0,1-1.43-1.638c-.339-.653-.592-1.348-.959-1.983a.773.773,0,0,0-.245-.292.3.3,0,0,0-.356.021.387.387,0,0,0-.079.2,4.605,4.605,0,0,0,.131,1.427,5.564,5.564,0,0,1-1.361,4.508,5.459,5.459,0,0,0-1.234,1.541,3.631,3.631,0,0,0-.129,1.5l.148,2.739a25.889,25.889,0,0,1-.934,8.262c-.429,1.545-1.155,3.106-.859,4.682a5.169,5.169,0,0,1,.266,1.807.617.617,0,0,0,0,.352.514.514,0,0,0,.215.2l1.427.932,1.288-3.814a7.048,7.048,0,0,0,.285-1,7.608,7.608,0,0,0,.084-1.172,49.483,49.483,0,0,1,1.324-10.183,7.814,7.814,0,0,1,.429-1.408,8.63,8.63,0,0,1,1.612-2.2c.015-.316-.026-.631,0-.949a6.077,6.077,0,0,1,.234-1.636A1.967,1.967,0,0,1,784.037,522.626Z" transform="translate(-613.39 -426.47)" fill="#454b69"/>
    <path id="Caminho_761" data-name="Caminho 761" d="M788.489,556.08a19.38,19.38,0,0,0,.041,2.711l.215,3.593a5.164,5.164,0,0,0,.215,1.419c.172.489.489.919.655,1.412.056.167.094.343.15.513a6,6,0,0,0,.258.6,11.126,11.126,0,0,1,.779,4.2c.041,1.432-.032,2.868.114,4.293a2.593,2.593,0,0,1-1.14.056,1.594,1.594,0,0,0-.429-.058,1.354,1.354,0,0,0-.361.1,3.716,3.716,0,0,1-3.119-.279,6.21,6.21,0,0,1-.8-.584,2.443,2.443,0,0,1-.545-.577,2.147,2.147,0,0,1-.247-1.043,16.974,16.974,0,0,1,.754-4.293,39.952,39.952,0,0,0,.644-4.162,54.458,54.458,0,0,1,.644-6.156,1.7,1.7,0,0,1,.343-.8,1.72,1.72,0,0,1,.554-.356C787.634,556.471,788.061,556.277,788.489,556.08Z" transform="translate(-620.007 -456.361)" fill="#454b69"/>
    <path id="Caminho_762" data-name="Caminho 762" d="M784.037,522.626c-.127-.331-.5-.47-.814-.644a3.8,3.8,0,0,1-1.43-1.638c-.339-.653-.592-1.348-.959-1.983a.773.773,0,0,0-.245-.292.3.3,0,0,0-.356.021.387.387,0,0,0-.079.2,4.605,4.605,0,0,0,.131,1.427,5.564,5.564,0,0,1-1.361,4.508,5.459,5.459,0,0,0-1.234,1.541,3.631,3.631,0,0,0-.129,1.5l.148,2.739a25.889,25.889,0,0,1-.934,8.262c-.429,1.545-1.155,3.106-.859,4.682a5.169,5.169,0,0,1,.266,1.807.617.617,0,0,0,0,.352.514.514,0,0,0,.215.2l1.427.932,1.288-3.814a7.048,7.048,0,0,0,.285-1,7.608,7.608,0,0,0,.084-1.172,49.483,49.483,0,0,1,1.324-10.183,7.814,7.814,0,0,1,.429-1.408,8.63,8.63,0,0,1,1.612-2.2c.015-.316-.026-.631,0-.949a6.077,6.077,0,0,1,.234-1.636A1.967,1.967,0,0,1,784.037,522.626Z" transform="translate(-613.39 -426.47)" opacity="0.1"/>
    <path id="Caminho_763" data-name="Caminho 763" d="M789.812,638.577a.766.766,0,0,1-.279.4c-.144.082-.378.013-.391-.152-.24-.032-.429.251-.661.27s-.446-.215-.674-.163c-.146.039-.283.193-.416.125-.056-.028-.09-.088-.148-.109-.092-.03-.18.056-.275.077-.2.045-.346-.2-.352-.4a1.384,1.384,0,0,0-.041-.605.129.129,0,0,0-.062-.069c-.064-.03-.135.03-.178.088-.159.215-.2.513-.365.736s-.545.328-.691.1a.547.547,0,0,1-.03-.389,1.86,1.86,0,0,1,.8-1.4,2.188,2.188,0,0,1,1.417-.034q.985.215,1.968.444c.174.041.59.062.665.264S789.88,638.4,789.812,638.577Z" transform="translate(-620.755 -519.872)" fill="#a1616a"/>
    <path id="Caminho_764" data-name="Caminho 764" d="M747.6,455.888a12.585,12.585,0,0,0,1.406,3.231,5.017,5.017,0,0,1,.665,3.394,11.819,11.819,0,0,1-.429,1.157,10.926,10.926,0,0,0-.442,2.056,10.809,10.809,0,0,0-.17,2.866,3.619,3.619,0,0,0,1.288,2.49l-.06-.429a4.771,4.771,0,0,1,.908.625,5.763,5.763,0,0,0,.644-1.749l1.458,1.131a3.147,3.147,0,0,0,2.164.914l-.644-1.483c-.178-.412-.356-.822-.567-1.219a3.834,3.834,0,0,1-.348-.743,3.356,3.356,0,0,1-.094-.687,47.9,47.9,0,0,0-2.108-11.162,9.307,9.307,0,0,0-1.015-2.361,2.958,2.958,0,0,0-.846-.874,4.1,4.1,0,0,0-1.822-.479,5.62,5.62,0,0,0-1.329-.03,4.077,4.077,0,0,0-1.288.442A6.869,6.869,0,0,0,742,455.925a5.839,5.839,0,0,0-.672,2.982c.084,1.095,1.127.6,1.831.324A9.009,9.009,0,0,0,747.6,455.888Z" transform="translate(-586.277 -375.022)" fill="#3f3d56"/>
    <path id="Caminho_765" data-name="Caminho 765" d="M749.9,528.784a1.849,1.849,0,0,1,.245.859.571.571,0,0,1-.129.356.537.537,0,0,1-.492.135,1.35,1.35,0,0,1-.479-.215,1.11,1.11,0,0,1-.457-.459,1.2,1.2,0,0,1-.069-.288l-.114-.726a.928.928,0,0,1,0-.429c.1-.3.53-.826.859-.569S749.741,528.44,749.9,528.784Z" transform="translate(-591.82 -433.821)" opacity="0.1"/>
    <path id="Caminho_766" data-name="Caminho 766" d="M739.765,407.39l-.8,6.03,3.537-.215,1.151-5.815Z" transform="translate(-580.341 -319.934)" fill="#454b69"/>
    <circle id="Elipse_241" data-name="Elipse 241" cx="0.268" cy="0.268" r="0.268" transform="translate(160.896 88.982)" fill="#fff"/>
    <g id="Grupo_28" data-name="Grupo 28" transform="translate(155.039 79.821)" opacity="0.1">
      <path id="Caminho_767" data-name="Caminho 767" d="M749.732,470.324c.036-.105.069-.215.1-.318a5.034,5.034,0,0,0-.668-3.4,12.771,12.771,0,0,1-1.4-3.231,8.978,8.978,0,0,1-4.439,3.34c-.7.273-1.749.768-1.833-.324a4.4,4.4,0,0,1,0-.732,5.087,5.087,0,0,0-.193,1.749c.084,1.095,1.127.6,1.831.324a8.952,8.952,0,0,0,4.439-3.338,12.357,12.357,0,0,0,1.406,3.22A5.914,5.914,0,0,1,749.732,470.324Z" transform="translate(-741.282 -463.38)"/>
      <path id="Caminho_768" data-name="Caminho 768" d="M779.655,513.022q-.73-.562-1.457-1.131a5.748,5.748,0,0,1-.644,1.752,4.719,4.719,0,0,0-.908-.627l.06.429a3.653,3.653,0,0,1-1.288-2.49,10.63,10.63,0,0,1,.167-2.866c.015-.1.032-.215.047-.309-.1.429-.167.882-.234,1.327a10.815,10.815,0,0,0-.17,2.866,3.619,3.619,0,0,0,1.288,2.49l-.06-.429a4.889,4.889,0,0,1,.908.627,5.8,5.8,0,0,0,.644-1.749q.73.565,1.458,1.131a3.157,3.157,0,0,0,2.164.914l-.464-1.073A4.3,4.3,0,0,1,779.655,513.022Z" transform="translate(-767.909 -498.25)"/>
    </g>
    <path id="Caminho_769" data-name="Caminho 769" d="M744.53,507.3a5.063,5.063,0,0,1,1.2-1.146.36.36,0,0,1,.247-.069c.069.015.127.067.2.079a.393.393,0,0,0,.232-.056l.992-.477a1.051,1.051,0,0,1,.474-.137.348.348,0,0,1,.346.3c0,.185-.182.309-.346.4a9.276,9.276,0,0,0-1.391.97c-.215.191-.459.507-.292.751a.644.644,0,0,0,.545.182,4.377,4.377,0,0,0,1.073-.082c.283-.071.55-.2.835-.264a4.107,4.107,0,0,1,.8-.079.644.644,0,0,1,.449.1c.118.1.107.343-.045.373a.7.7,0,0,1-.255.921c-.281.215-.644.3-.938.485a1.209,1.209,0,0,1,1.054-.039.214.214,0,0,1,.1.12c.019.1-.088.178-.182.215-1.408.657-3.076.429-4.551.917a4.842,4.842,0,0,0-1.691.977c.23-.215-1.185-1.717-1.062-2.146.1-.352.809-.8,1.073-1.073Q743.978,507.937,744.53,507.3Z" transform="translate(-587.047 -416.63)" fill="#a1616a"/>
    <path id="Caminho_770" data-name="Caminho 770" d="M714.676,527.494a1.147,1.147,0,0,0,.075.575,2.1,2.1,0,0,1-.288,1.436,6.225,6.225,0,0,1-1,1.372,13.241,13.241,0,0,1-1.516,1.344,32.624,32.624,0,0,1-3.306,2.28,2.752,2.752,0,0,1-.955.419,2.86,2.86,0,0,1-.8-.013,4.622,4.622,0,0,1-1.05-.215,5.057,5.057,0,0,0-.058-.9q-.455-2.81-.906-5.624c-.077-.468-.152-.94-.262-1.4-.082-.343-.159-.676-.247-1.007v-.024c.215-.541.844-.884.906-1.46.908-.086,1.76-.187,2.67-.271a6.012,6.012,0,0,1-.174,2.542.333.333,0,0,0,.333-.2c.066-.122.088-.264.144-.393.215-.489.844-.605,1.288-.889.781-.485,1.118-1.537,1.96-1.9a.307.307,0,0,1,.2-.034c.185.049.215.373.414.361a.283.283,0,0,0,.159-.09c.343-.311.773-.569,1.114-.878.047.092.092.185.137.277q.717,1.451,1.432,2.9a2.066,2.066,0,0,0,.766.979C715.563,527.109,714.811,527.058,714.676,527.494Z" transform="translate(-557.247 -430.005)" opacity="0.1"/>
    <path id="Caminho_771" data-name="Caminho 771" d="M702.23,522.168c-.06.577-.693.921-.906,1.462a2.618,2.618,0,0,0-.105.889,24.542,24.542,0,0,1-.322,2.518,5.106,5.106,0,0,0,.18,2.507,12.472,12.472,0,0,1,.607,1.38,4.8,4.8,0,0,0,.245.979c.333.644,1.181.811,1.908.891a2.863,2.863,0,0,0,.8.013,2.79,2.79,0,0,0,.957-.419,32.824,32.824,0,0,0,3.3-2.28,8.99,8.99,0,0,0,2.52-2.715,2.113,2.113,0,0,0,.29-1.436,1.1,1.1,0,0,1-.075-.575c.135-.429.884-.384,1.047-.811a2.033,2.033,0,0,1-.764-.977l-1.569-3.183c-.343.311-.773.569-1.114.88a.3.3,0,0,1-.161.09c-.191.013-.23-.311-.414-.361a.313.313,0,0,0-.2.032c-.844.367-1.181,1.419-1.962,1.9-.455.283-1.073.4-1.288.889-.056.127-.077.27-.144.393a.333.333,0,0,1-.333.215,5.985,5.985,0,0,0,.174-2.541C703.992,521.983,703.14,522.084,702.23,522.168Z" transform="translate(-554.471 -428.348)" fill="#454b69"/>
    <path id="Caminho_772" data-name="Caminho 772" d="M791.311,637.835c.058-.021.116-.045.174-.062a.713.713,0,0,0,.193-.773c-.075-.2-.492-.215-.665-.264q-.983-.236-1.968-.442a2.132,2.132,0,0,0-1.417.032c-.159.084-.29.363-.4.5l.165.142c.178.148.361.294.549.429a.135.135,0,0,1,.142-.045.129.129,0,0,1,.062.069.432.432,0,0,1,.045.135A3.7,3.7,0,0,0,791.311,637.835Z" transform="translate(-622.329 -519.274)" fill="#454b69"/>
  </g>
</svg>
