<svg xmlns="http://www.w3.org/2000/svg" width="18.236" height="18.252" viewBox="0 0 18.236 18.252">
  <g id="Grupo_26" data-name="Grupo 26" transform="translate(-76.115 -580.844)">
    <path id="Caminho_729" data-name="Caminho 729" d="M398.85,530.741h11.231v2.1H398.85Zm5.618-5.618a1.4,1.4,0,1,0-.389-2.754l-2.927-2.139-.173.158,2.144,2.922a1.489,1.489,0,0,0-.058.41,1.4,1.4,0,0,0,1.4,1.4Z" transform="translate(-319.225 66.253)" fill="#65617d"/>
    <path id="Caminho_730" data-name="Caminho 730" d="M401.3,509.5a9.129,9.129,0,0,0-7.195,14.747h2.58l.179-.179.967-.967-1.02-1-.967.962a6.969,6.969,0,0,1-1.545-3.726h1.366v-1.408H394.3a6.969,6.969,0,0,1,1.545-3.726l.967.962,1-1-.962-.967a6.974,6.974,0,0,1,3.726-1.545v1.366h1.4v-1.366a7.01,7.01,0,0,1,3.731,1.545l-.967.967,1.009,1,.967-.962a7.011,7.011,0,0,1,1.545,3.726H406.9v1.408h1.372a7.011,7.011,0,0,1-1.545,3.726l-.967-.962-1.009,1,.972.967.173.179h2.58a9.129,9.129,0,0,0-7.19-14.747Z" transform="translate(-316.056 71.344)" fill="#65617d"/>
  </g>
</svg>