<svg xmlns="http://www.w3.org/2000/svg" width="51.163" height="51.16" viewBox="0 0 51.163 51.16">
  <g id="Grupo_34" data-name="Grupo 34" transform="translate(-79.663 -574.229)">
    <path id="Path_952" data-name="Path 952" d="M298.821,400.722a25.444,25.444,0,0,1-4.159,13.983,24.865,24.865,0,0,1-1.871,2.513,25.685,25.685,0,0,1-5.483,4.872q-.837.555-1.72,1.038a25.361,25.361,0,0,1-9.938,3.061c-.793.077-1.6.114-2.412.114a25.479,25.479,0,0,1-6.6-.863,24.512,24.512,0,0,1-3.571-1.24q-.887-.383-1.734-.833a25.2,25.2,0,0,1-3.854-2.5q-.842-.655-1.623-1.381a25.581,25.581,0,1,1,42.968-18.767Z" transform="translate(-167.995 199.086)" fill="#00bfa6"/>
    <g id="Group_32" data-name="Group 32" transform="translate(93.303 587.865)">
      <rect id="Rectangle_273" data-name="Rectangle 273" width="3.136" height="23.878" transform="translate(10.371)" fill="#fff"/>
      <rect id="Rectangle_274" data-name="Rectangle 274" width="3.136" height="23.878" transform="translate(23.878 10.371) rotate(90)" fill="#fff"/>
    </g>
  </g>
</svg>