<svg xmlns="http://www.w3.org/2000/svg" width="12.66" height="21.042" viewBox="0 0 12.66 21.042">
  <g id="Grupo_27" data-name="Grupo 27" transform="translate(-78.928 -524.783)">
    <path id="Caminho_731" data-name="Caminho 731" d="M407.4,436.2a4.729,4.729,0,0,1-1.881-.478.336.336,0,0,0-.478.331l.152,2.239a.173.173,0,0,0,.279.121l.636-.484a.173.173,0,0,1,.247.047l.9,1.408a.173.173,0,0,0,.289,0l.9-1.408a.173.173,0,0,1,.252-.021l.636.483a.173.173,0,0,0,.279-.121l.152-2.239a.342.342,0,0,0-.478-.331,4.766,4.766,0,0,1-1.881.478Z" transform="translate(-322.161 106.363)" fill="#65617d"/>
    <path id="Caminho_732" data-name="Caminho 732" d="M410.05,414.97l-2.1-2.155c0-6.932-4.089-9.985-4.089-9.985s-4.131,3.075-4.131,9.985l-2.1,2.155a.368.368,0,0,0-.1.31l.809,4.9a.336.336,0,0,0,.526.242l2.948-2a3.332,3.332,0,0,0,2.065.878,3.153,3.153,0,0,0,2.023-.878l2.943,2a.336.336,0,0,0,.526-.242l.815-4.909a.383.383,0,0,0-.131-.3Zm-6.2-4.436a1.408,1.408,0,1,1,1.345-1.4,1.377,1.377,0,0,1-1.345,1.4Z" transform="translate(-318.595 121.953)" fill="#65617d"/>
  </g>
</svg>