<svg xmlns="http://www.w3.org/2000/svg" width="38.05" height="38.05" viewBox="0 0 38.05 38.05">
  <g id="Grupo_37" data-name="Grupo 37" transform="translate(-15.088 -16.575)">
    <ellipse id="Elipse_264" data-name="Elipse 264" cx="19.025" cy="19.025" rx="19.025" ry="19.025" transform="translate(15.088 16.575)" fill="#00bfa6"/>
    <path id="Caminho_865" data-name="Caminho 865" d="M388.385,683.645h2.973l-6.186,6.122a5.776,5.776,0,0,1-8.108,0l-6.185-6.122h2.973l4.7,4.65a3.658,3.658,0,0,0,5.135,0Zm-14.571,17.022h-2.973l6.223-6.159a5.776,5.776,0,0,1,8.108,0l6.224,6.159h-2.973l-4.737-4.688a3.658,3.658,0,0,0-5.136,0Z" transform="translate(-347.005 -656.556)" fill="#fff"/>
  </g>
</svg>