<svg xmlns="http://www.w3.org/2000/svg" width="15.274" height="18.068" viewBox="0 0 15.274 18.068">
  <path id="Caminho_733" data-name="Caminho 733" d="M409.646,319.329h-.221c-.289,0-.526-.037-.557-.326h0c-.641-5.96-4.4-6.075-4.4-7.479s3.763-1.519,4.4-7.479h0c.031-.289.268-.326.557-.326h.221a.631.631,0,0,0,.636-.583.62.62,0,0,0-.615-.646H395.64a.631.631,0,0,0-.631.583.615.615,0,0,0,.615.646h.242c.284,0,.526.037.557.326h0c.641,5.96,4.4,6.075,4.4,7.479s-3.763,1.519-4.4,7.479h0c-.032.289-.273.326-.557.326h-.226a.631.631,0,0,0-.631.583.615.615,0,0,0,.615.646h14.043a.615.615,0,0,0,.615-.646.636.636,0,0,0-.636-.583Zm-11.068-1.5c1.261-3.505,3.49-3.08,3.49-4.462V310.93c0-.851-1.613-1.445-2.628-2.827a.342.342,0,0,1,.284-.526h5.834a.342.342,0,0,1,.294.526c-.993,1.387-2.628,1.981-2.628,2.833v2.439c0,1.372,2.144,1,3.5,4.462.126.31.032.7-.3.7h-7.542C398.541,318.525,398.462,318.146,398.578,317.831Z" transform="translate(-395.008 -302.49)" fill="#65617d"/>
</svg>
