<svg id="Group_30" data-name="Group 30" xmlns="http://www.w3.org/2000/svg" width="51.132" height="51.132" viewBox="0 0 51.132 51.132">
  <path id="Path_944" data-name="Path 944" d="M298.78,227.783a25.426,25.426,0,0,1-4.157,13.974,24.861,24.861,0,0,1-1.87,2.511,25.668,25.668,0,0,1-5.479,4.868q-.836.554-1.719,1.038a25.345,25.345,0,0,1-9.931,3.058c-.792.077-1.6.114-2.411.114a25.464,25.464,0,0,1-6.6-.863,24.49,24.49,0,0,1-3.569-1.239q-.886-.383-1.733-.833a25.183,25.183,0,0,1-3.851-2.494q-.841-.655-1.622-1.38a25.565,25.565,0,1,1,42.938-18.754Z" transform="translate(-247.648 -202.215)" fill="#e6e6e6"/>
  <path id="Path_945" data-name="Path 945" d="M304.673,281.775s2.327,6.466.519,10.085,2.845,7.758,2.845,7.758,12.154-6.206,10.6-9.31-4.137-7.241-3.621-9.826Z" transform="translate(-285.303 -253.898)" fill="#ffb8b8"/>
  <ellipse id="Ellipse_185" data-name="Ellipse 185" cx="8.275" cy="8.275" rx="8.275" ry="8.275" transform="translate(15.62 13.784)" fill="#ffb8b8"/>
  <path id="Path_946" data-name="Path 946" d="M296.552,319.93a24.5,24.5,0,0,1-3.569-1.239l.222-6.282,2.327-5.174a10.815,10.815,0,0,0,1.672,1.078c.142.077.283.151.44.225a8.553,8.553,0,0,0,9.2-.6,13.159,13.159,0,0,0,3.18-3.579l6.453,3.656.339,3.962.393,4.61q-.836.554-1.719,1.038a25.345,25.345,0,0,1-9.931,3.058c-.792.077-1.6.114-2.411.114A25.465,25.465,0,0,1,296.552,319.93Z" transform="translate(-277.584 -269.662)" fill="#575a89"/>
  <path id="Path_947" data-name="Path 947" d="M285.5,301.44v.01l-.326,3.377L285,306.613l-.252,2.656-.839,8.736a24.494,24.494,0,0,1-3.569-1.239q-.886-.383-1.733-.833a25.186,25.186,0,0,1-3.851-2.494l-.92-4.248.07-.047Z" transform="translate(-264.942 -267.737)" fill="#575a89"/>
  <path id="Path_948" data-name="Path 948" d="M339.941,311.5a25.346,25.346,0,0,1-9.931,3.058c.189-3.142.463-6.178.775-8.88.161-1.387.33-2.683.51-3.865.561-3.8,1.165-6.376,1.6-6.725l2.861,1.888,11.637,4.136-.252,4.479a25.669,25.669,0,0,1-5.479,4.868Q340.824,311.022,339.941,311.5Z" transform="translate(-302.034 -263.547)" fill="#575a89"/>
  <path id="Path_949" data-name="Path 949" d="M273.393,328.007q-.841-.655-1.622-1.38l.443-2.867.33-.047,1.481-.211,3.22,7a25.178,25.178,0,0,1-3.851-2.494Z" transform="translate(-263.577 -282.305)" fill="#575a89"/>
  <path id="Path_950" data-name="Path 950" d="M367.723,313.8a24.852,24.852,0,0,1-1.87,2.511,25.666,25.666,0,0,1-5.479,4.868q-.836.554-1.719,1.038l-.305-1.333,1.632-4.314,1.988-5.254,4.136.519A24.208,24.208,0,0,1,367.723,313.8Z" transform="translate(-320.748 -274.258)" fill="#575a89"/>
  <path id="Path_951" data-name="Path 951" d="M307.594,236.321a9.668,9.668,0,0,0-5.5-4.2l-1.681,1.345.654-1.569a8.9,8.9,0,0,0-1.662-.094l-1.513,1.945.626-1.878a9.575,9.575,0,0,0-6.605,3.929,8.5,8.5,0,0,0-.356,9.435c.519-1.6,1.151-3.1,1.671-4.694a4.728,4.728,0,0,0,1.232.006l.632-1.476.177,1.413c1.96-.171,4.868-.546,6.726-.889l-.181-1.086,1.081.9c.569-.131.908-.25.879-.341,1.382,2.228,2.752,3.651,4.134,5.879C308.433,241.8,309.359,239.188,307.594,236.321Z" transform="translate(-275.807 -221.746)" fill="#2f2e41"/>
  <ellipse id="Ellipse_186" data-name="Ellipse 186" cx="0.56" cy="1.12" rx="0.56" ry="1.12" transform="translate(30.768 20.679)" fill="#ffb8b8"/>
</svg>