<svg xmlns="http://www.w3.org/2000/svg" width="40" height="40" viewBox="0 0 40 40">
  <path id="grid" d="M47.357,50.571H35.214A3.214,3.214,0,0,1,32,47.357V35.214A3.214,3.214,0,0,1,35.214,32H47.357a3.214,3.214,0,0,1,3.214,3.214V47.357A3.214,3.214,0,0,1,47.357,50.571Zm21.429,0H56.643a3.214,3.214,0,0,1-3.214-3.214V35.214A3.214,3.214,0,0,1,56.643,32H68.786A3.214,3.214,0,0,1,72,35.214V47.357A3.214,3.214,0,0,1,68.786,50.571ZM47.357,72H35.214A3.214,3.214,0,0,1,32,68.786V56.643a3.214,3.214,0,0,1,3.214-3.214H47.357a3.214,3.214,0,0,1,3.214,3.214V68.786A3.214,3.214,0,0,1,47.357,72Zm21.429,0H56.643a3.214,3.214,0,0,1-3.214-3.214V56.643a3.214,3.214,0,0,1,3.214-3.214H68.786A3.214,3.214,0,0,1,72,56.643V68.786A3.214,3.214,0,0,1,68.786,72Z" transform="translate(-32 -32)" fill="#00bfa6"/>
</svg>
