<svg xmlns="http://www.w3.org/2000/svg" width="203.789" height="129.927" viewBox="0 0 203.789 129.927">
  <g id="Statistic_Chart" data-name="Statistic Chart" transform="translate(0 -0.001)">
    <circle id="Elipse_94" data-name="Elipse 94" cx="2.253" cy="2.253" r="2.253" transform="translate(10.289 0.001)" fill="#e6e6e6"/>
    <circle id="Elipse_95" data-name="Elipse 95" cx="2.253" cy="2.253" r="2.253" transform="translate(21.694 0.001)" fill="#e6e6e6"/>
    <circle id="Elipse_96" data-name="Elipse 96" cx="2.253" cy="2.253" r="2.253" transform="translate(33.099 0.001)" fill="#e6e6e6"/>
    <circle id="Elipse_97" data-name="Elipse 97" cx="2.253" cy="2.253" r="2.253" transform="translate(44.503 0.001)" fill="#e6e6e6"/>
    <circle id="Elipse_98" data-name="Elipse 98" cx="2.253" cy="2.253" r="2.253" transform="translate(55.908 0.001)" fill="#e6e6e6"/>
    <circle id="Elipse_99" data-name="Elipse 99" cx="2.253" cy="2.253" r="2.253" transform="translate(67.312 0.001)" fill="#e6e6e6"/>
    <circle id="Elipse_100" data-name="Elipse 100" cx="2.253" cy="2.253" r="2.253" transform="translate(78.717 0.001)" fill="#e6e6e6"/>
    <circle id="Elipse_101" data-name="Elipse 101" cx="2.253" cy="2.253" r="2.253" transform="translate(90.121 0.001)" fill="#e6e6e6"/>
    <circle id="Elipse_102" data-name="Elipse 102" cx="2.253" cy="2.253" r="2.253" transform="translate(101.526 0.001)" fill="#e6e6e6"/>
    <circle id="Elipse_103" data-name="Elipse 103" cx="2.253" cy="2.253" r="2.253" transform="translate(112.931 0.001)" fill="#e6e6e6"/>
    <circle id="Elipse_104" data-name="Elipse 104" cx="2.253" cy="2.253" r="2.253" transform="translate(10.289 11.549)" fill="#e6e6e6"/>
    <circle id="Elipse_105" data-name="Elipse 105" cx="2.253" cy="2.253" r="2.253" transform="translate(21.694 11.549)" fill="#e6e6e6"/>
    <circle id="Elipse_106" data-name="Elipse 106" cx="2.253" cy="2.253" r="2.253" transform="translate(33.099 11.549)" fill="#e6e6e6"/>
    <circle id="Elipse_107" data-name="Elipse 107" cx="2.253" cy="2.253" r="2.253" transform="translate(44.503 11.549)" fill="#00bfa6"/>
    <circle id="Elipse_108" data-name="Elipse 108" cx="2.253" cy="2.253" r="2.253" transform="translate(55.908 11.549)" fill="#e6e6e6"/>
    <circle id="Elipse_109" data-name="Elipse 109" cx="2.253" cy="2.253" r="2.253" transform="translate(67.312 11.549)" fill="#e6e6e6"/>
    <circle id="Elipse_110" data-name="Elipse 110" cx="2.253" cy="2.253" r="2.253" transform="translate(78.717 11.549)" fill="#e6e6e6"/>
    <circle id="Elipse_111" data-name="Elipse 111" cx="2.253" cy="2.253" r="2.253" transform="translate(90.121 11.549)" fill="#e6e6e6"/>
    <circle id="Elipse_112" data-name="Elipse 112" cx="2.253" cy="2.253" r="2.253" transform="translate(101.526 11.549)" fill="#e6e6e6"/>
    <circle id="Elipse_113" data-name="Elipse 113" cx="2.253" cy="2.253" r="2.253" transform="translate(112.931 11.549)" fill="#e6e6e6"/>
    <circle id="Elipse_114" data-name="Elipse 114" cx="2.253" cy="2.253" r="2.253" transform="translate(10.289 23.096)" fill="#e6e6e6"/>
    <circle id="Elipse_115" data-name="Elipse 115" cx="2.253" cy="2.253" r="2.253" transform="translate(21.694 23.096)" fill="#e6e6e6"/>
    <circle id="Elipse_116" data-name="Elipse 116" cx="2.253" cy="2.253" r="2.253" transform="translate(33.099 23.096)" fill="#e6e6e6"/>
    <circle id="Elipse_117" data-name="Elipse 117" cx="2.253" cy="2.253" r="2.253" transform="translate(44.503 23.096)" fill="#e6e6e6"/>
    <circle id="Elipse_118" data-name="Elipse 118" cx="2.253" cy="2.253" r="2.253" transform="translate(55.908 23.096)" fill="#e6e6e6"/>
    <circle id="Elipse_119" data-name="Elipse 119" cx="2.253" cy="2.253" r="2.253" transform="translate(67.312 23.096)" fill="#e6e6e6"/>
    <circle id="Elipse_120" data-name="Elipse 120" cx="2.253" cy="2.253" r="2.253" transform="translate(78.717 23.096)" fill="#e6e6e6"/>
    <circle id="Elipse_121" data-name="Elipse 121" cx="2.253" cy="2.253" r="2.253" transform="translate(90.121 23.096)" fill="#e6e6e6"/>
    <circle id="Elipse_122" data-name="Elipse 122" cx="2.253" cy="2.253" r="2.253" transform="translate(101.526 23.096)" fill="#e6e6e6"/>
    <circle id="Elipse_123" data-name="Elipse 123" cx="2.253" cy="2.253" r="2.253" transform="translate(112.931 23.096)" fill="#e6e6e6"/>
    <circle id="Elipse_124" data-name="Elipse 124" cx="2.253" cy="2.253" r="2.253" transform="translate(10.289 34.644)" fill="#e6e6e6"/>
    <circle id="Elipse_125" data-name="Elipse 125" cx="2.253" cy="2.253" r="2.253" transform="translate(21.694 34.644)" fill="#e6e6e6"/>
    <circle id="Elipse_126" data-name="Elipse 126" cx="2.253" cy="2.253" r="2.253" transform="translate(33.099 34.644)" fill="#e6e6e6"/>
    <circle id="Elipse_127" data-name="Elipse 127" cx="2.253" cy="2.253" r="2.253" transform="translate(44.503 34.644)" fill="#e6e6e6"/>
    <circle id="Elipse_128" data-name="Elipse 128" cx="2.253" cy="2.253" r="2.253" transform="translate(55.908 34.644)" fill="#e6e6e6"/>
    <circle id="Elipse_129" data-name="Elipse 129" cx="2.253" cy="2.253" r="2.253" transform="translate(67.312 34.644)" fill="#e6e6e6"/>
    <circle id="Elipse_130" data-name="Elipse 130" cx="2.253" cy="2.253" r="2.253" transform="translate(78.717 34.644)" fill="#e6e6e6"/>
    <circle id="Elipse_131" data-name="Elipse 131" cx="2.253" cy="2.253" r="2.253" transform="translate(90.121 34.644)" fill="#e6e6e6"/>
    <circle id="Elipse_132" data-name="Elipse 132" cx="2.253" cy="2.253" r="2.253" transform="translate(101.526 34.644)" fill="#e6e6e6"/>
    <circle id="Elipse_133" data-name="Elipse 133" cx="2.253" cy="2.253" r="2.253" transform="translate(112.931 34.644)" fill="#e6e6e6"/>
    <circle id="Elipse_134" data-name="Elipse 134" cx="2.253" cy="2.253" r="2.253" transform="translate(10.289 46.192)" fill="#e6e6e6"/>
    <circle id="Elipse_135" data-name="Elipse 135" cx="2.253" cy="2.253" r="2.253" transform="translate(21.694 46.192)" fill="#00bfa6"/>
    <circle id="Elipse_136" data-name="Elipse 136" cx="2.253" cy="2.253" r="2.253" transform="translate(33.099 46.192)" fill="#e6e6e6"/>
    <circle id="Elipse_137" data-name="Elipse 137" cx="2.253" cy="2.253" r="2.253" transform="translate(44.503 46.192)" fill="#e6e6e6"/>
    <circle id="Elipse_138" data-name="Elipse 138" cx="2.253" cy="2.253" r="2.253" transform="translate(55.908 46.192)" fill="#e6e6e6"/>
    <circle id="Elipse_139" data-name="Elipse 139" cx="2.253" cy="2.253" r="2.253" transform="translate(67.312 46.192)" fill="#e6e6e6"/>
    <circle id="Elipse_140" data-name="Elipse 140" cx="2.253" cy="2.253" r="2.253" transform="translate(78.717 46.192)" fill="#e6e6e6"/>
    <circle id="Elipse_141" data-name="Elipse 141" cx="2.253" cy="2.253" r="2.253" transform="translate(90.121 46.192)" fill="#e6e6e6"/>
    <circle id="Elipse_142" data-name="Elipse 142" cx="2.253" cy="2.253" r="2.253" transform="translate(101.526 46.192)" fill="#e6e6e6"/>
    <circle id="Elipse_143" data-name="Elipse 143" cx="2.253" cy="2.253" r="2.253" transform="translate(112.931 46.192)" fill="#e6e6e6"/>
    <circle id="Elipse_144" data-name="Elipse 144" cx="2.253" cy="2.253" r="2.253" transform="translate(10.289 57.739)" fill="#e6e6e6"/>
    <circle id="Elipse_145" data-name="Elipse 145" cx="2.253" cy="2.253" r="2.253" transform="translate(21.694 57.739)" fill="#e6e6e6"/>
    <circle id="Elipse_146" data-name="Elipse 146" cx="2.253" cy="2.253" r="2.253" transform="translate(33.099 57.739)" fill="#e6e6e6"/>
    <circle id="Elipse_147" data-name="Elipse 147" cx="2.253" cy="2.253" r="2.253" transform="translate(44.503 57.739)" fill="#e6e6e6"/>
    <circle id="Elipse_148" data-name="Elipse 148" cx="2.253" cy="2.253" r="2.253" transform="translate(55.908 57.739)" fill="#e6e6e6"/>
    <circle id="Elipse_149" data-name="Elipse 149" cx="2.253" cy="2.253" r="2.253" transform="translate(67.312 57.739)" fill="#e6e6e6"/>
    <circle id="Elipse_150" data-name="Elipse 150" cx="2.253" cy="2.253" r="2.253" transform="translate(78.717 57.739)" fill="#e6e6e6"/>
    <circle id="Elipse_151" data-name="Elipse 151" cx="2.253" cy="2.253" r="2.253" transform="translate(90.121 57.739)" fill="#e6e6e6"/>
    <circle id="Elipse_152" data-name="Elipse 152" cx="2.253" cy="2.253" r="2.253" transform="translate(101.526 57.739)" fill="#e6e6e6"/>
    <circle id="Elipse_153" data-name="Elipse 153" cx="2.253" cy="2.253" r="2.253" transform="translate(112.931 57.739)" fill="#e6e6e6"/>
    <circle id="Elipse_154" data-name="Elipse 154" cx="2.253" cy="2.253" r="2.253" transform="translate(10.289 69.287)" fill="#e6e6e6"/>
    <circle id="Elipse_155" data-name="Elipse 155" cx="2.253" cy="2.253" r="2.253" transform="translate(21.694 69.287)" fill="#e6e6e6"/>
    <circle id="Elipse_156" data-name="Elipse 156" cx="2.253" cy="2.253" r="2.253" transform="translate(33.099 69.287)" fill="#00bfa6"/>
    <circle id="Elipse_157" data-name="Elipse 157" cx="2.253" cy="2.253" r="2.253" transform="translate(44.503 69.287)" fill="#e6e6e6"/>
    <circle id="Elipse_158" data-name="Elipse 158" cx="2.253" cy="2.253" r="2.253" transform="translate(55.908 69.287)" fill="#e6e6e6"/>
    <circle id="Elipse_159" data-name="Elipse 159" cx="2.253" cy="2.253" r="2.253" transform="translate(67.312 69.287)" fill="#e6e6e6"/>
    <circle id="Elipse_160" data-name="Elipse 160" cx="2.253" cy="2.253" r="2.253" transform="translate(78.717 69.287)" fill="#e6e6e6"/>
    <circle id="Elipse_161" data-name="Elipse 161" cx="2.253" cy="2.253" r="2.253" transform="translate(90.121 69.287)" fill="#e6e6e6"/>
    <circle id="Elipse_162" data-name="Elipse 162" cx="2.253" cy="2.253" r="2.253" transform="translate(101.526 69.287)" fill="#e6e6e6"/>
    <circle id="Elipse_163" data-name="Elipse 163" cx="2.253" cy="2.253" r="2.253" transform="translate(112.931 69.287)" fill="#e6e6e6"/>
    <circle id="Elipse_164" data-name="Elipse 164" cx="2.253" cy="2.253" r="2.253" transform="translate(10.289 80.835)" fill="#e6e6e6"/>
    <circle id="Elipse_165" data-name="Elipse 165" cx="2.253" cy="2.253" r="2.253" transform="translate(21.694 80.835)" fill="#e6e6e6"/>
    <circle id="Elipse_166" data-name="Elipse 166" cx="2.253" cy="2.253" r="2.253" transform="translate(33.099 80.835)" fill="#e6e6e6"/>
    <circle id="Elipse_167" data-name="Elipse 167" cx="2.253" cy="2.253" r="2.253" transform="translate(44.503 80.835)" fill="#e6e6e6"/>
    <circle id="Elipse_168" data-name="Elipse 168" cx="2.253" cy="2.253" r="2.253" transform="translate(55.908 80.835)" fill="#e6e6e6"/>
    <circle id="Elipse_169" data-name="Elipse 169" cx="2.253" cy="2.253" r="2.253" transform="translate(67.312 80.835)" fill="#e6e6e6"/>
    <circle id="Elipse_170" data-name="Elipse 170" cx="2.253" cy="2.253" r="2.253" transform="translate(78.717 80.835)" fill="#e6e6e6"/>
    <circle id="Elipse_171" data-name="Elipse 171" cx="2.253" cy="2.253" r="2.253" transform="translate(90.121 80.835)" fill="#e6e6e6"/>
    <circle id="Elipse_172" data-name="Elipse 172" cx="2.253" cy="2.253" r="2.253" transform="translate(101.526 80.835)" fill="#e6e6e6"/>
    <circle id="Elipse_173" data-name="Elipse 173" cx="2.253" cy="2.253" r="2.253" transform="translate(112.931 80.835)" fill="#e6e6e6"/>
    <circle id="Elipse_174" data-name="Elipse 174" cx="2.253" cy="2.253" r="2.253" transform="translate(10.289 92.383)" fill="#e6e6e6"/>
    <circle id="Elipse_175" data-name="Elipse 175" cx="2.253" cy="2.253" r="2.253" transform="translate(21.694 92.383)" fill="#e6e6e6"/>
    <circle id="Elipse_176" data-name="Elipse 176" cx="2.253" cy="2.253" r="2.253" transform="translate(33.099 92.383)" fill="#e6e6e6"/>
    <circle id="Elipse_177" data-name="Elipse 177" cx="2.253" cy="2.253" r="2.253" transform="translate(44.503 92.383)" fill="#e6e6e6"/>
    <circle id="Elipse_178" data-name="Elipse 178" cx="2.253" cy="2.253" r="2.253" transform="translate(55.908 92.383)" fill="#e6e6e6"/>
    <circle id="Elipse_179" data-name="Elipse 179" cx="2.253" cy="2.253" r="2.253" transform="translate(67.312 92.383)" fill="#e6e6e6"/>
    <circle id="Elipse_180" data-name="Elipse 180" cx="2.253" cy="2.253" r="2.253" transform="translate(78.717 92.383)" fill="#e6e6e6"/>
    <circle id="Elipse_181" data-name="Elipse 181" cx="2.253" cy="2.253" r="2.253" transform="translate(90.121 92.383)" fill="#e6e6e6"/>
    <circle id="Elipse_182" data-name="Elipse 182" cx="2.253" cy="2.253" r="2.253" transform="translate(101.526 92.383)" fill="#e6e6e6"/>
    <circle id="Elipse_183" data-name="Elipse 183" cx="2.253" cy="2.253" r="2.253" transform="translate(112.931 92.383)" fill="#e6e6e6"/>
    <circle id="Elipse_184" data-name="Elipse 184" cx="2.253" cy="2.253" r="2.253" transform="translate(10.289 103.93)" fill="#e6e6e6"/>
    <circle id="Elipse_185" data-name="Elipse 185" cx="2.253" cy="2.253" r="2.253" transform="translate(21.694 103.93)" fill="#e6e6e6"/>
    <circle id="Elipse_186" data-name="Elipse 186" cx="2.253" cy="2.253" r="2.253" transform="translate(33.099 103.93)" fill="#e6e6e6"/>
    <circle id="Elipse_187" data-name="Elipse 187" cx="2.253" cy="2.253" r="2.253" transform="translate(44.503 103.93)" fill="#e6e6e6"/>
    <circle id="Elipse_188" data-name="Elipse 188" cx="2.253" cy="2.253" r="2.253" transform="translate(55.908 103.93)" fill="#e6e6e6"/>
    <circle id="Elipse_189" data-name="Elipse 189" cx="2.253" cy="2.253" r="2.253" transform="translate(67.312 103.93)" fill="#e6e6e6"/>
    <circle id="Elipse_190" data-name="Elipse 190" cx="2.253" cy="2.253" r="2.253" transform="translate(78.717 103.93)" fill="#e6e6e6"/>
    <circle id="Elipse_191" data-name="Elipse 191" cx="2.253" cy="2.253" r="2.253" transform="translate(90.121 103.93)" fill="#e6e6e6"/>
    <circle id="Elipse_192" data-name="Elipse 192" cx="2.253" cy="2.253" r="2.253" transform="translate(101.526 103.93)" fill="#e6e6e6"/>
    <circle id="Elipse_193" data-name="Elipse 193" cx="2.253" cy="2.253" r="2.253" transform="translate(112.931 103.93)" fill="#e6e6e6"/>
    <path id="Caminho_532" data-name="Caminho 532" d="M814.193,243.855a4.132,4.132,0,0,1,0-4.463,2.257,2.257,0,0,1,1.811-.764,2.3,2.3,0,0,1,1.832.764,4.1,4.1,0,0,1,0,4.463,2.294,2.294,0,0,1-1.832.765,2.257,2.257,0,0,1-1.811-.765Zm2.6-.792a3.117,3.117,0,0,0,.248-1.446,3.008,3.008,0,0,0-.255-1.426.838.838,0,0,0-.778-.448.811.811,0,0,0-.757.448,3.08,3.08,0,0,0-.248,1.426,3.115,3.115,0,0,0,.248,1.439.811.811,0,0,0,.757.448.836.836,0,0,0,.786-.441Zm-.882,5.51,5.675-9.807h1.529l-5.689,9.807Zm5.268-.668a3.378,3.378,0,0,1-.654-2.252,3.3,3.3,0,0,1,.654-2.218,2.577,2.577,0,0,1,3.65,0,4.144,4.144,0,0,1,0,4.47,2.561,2.561,0,0,1-3.65,0Zm2.6-.8a3.12,3.12,0,0,0,.248-1.439,3.013,3.013,0,0,0-.255-1.426.882.882,0,0,0-1.536,0,3.083,3.083,0,0,0-.248,1.426,3.123,3.123,0,0,0,.248,1.439.888.888,0,0,0,1.543,0Z" transform="translate(-621.692 -203.336)" fill="#3f3d56"/>
    <path id="Caminho_533" data-name="Caminho 533" d="M157.89,533.253a4.132,4.132,0,0,1,0-4.463,2.257,2.257,0,0,1,1.811-.764,2.3,2.3,0,0,1,1.832.764,4.1,4.1,0,0,1,0,4.463,2.294,2.294,0,0,1-1.832.765,2.257,2.257,0,0,1-1.811-.764Zm2.6-.792a3.116,3.116,0,0,0,.248-1.446,3.008,3.008,0,0,0-.255-1.426.838.838,0,0,0-.778-.448.812.812,0,0,0-.757.448,3.08,3.08,0,0,0-.248,1.426,3.118,3.118,0,0,0,.248,1.439.811.811,0,0,0,.757.448.836.836,0,0,0,.786-.441Zm-.882,5.509,5.675-9.807h1.529l-5.689,9.807Zm5.268-.668a3.377,3.377,0,0,1-.654-2.252,3.305,3.305,0,0,1,.654-2.218,2.577,2.577,0,0,1,3.65,0,4.144,4.144,0,0,1,0,4.47,2.561,2.561,0,0,1-3.65,0Zm2.6-.8a3.119,3.119,0,0,0,.248-1.439,3.011,3.011,0,0,0-.255-1.426.882.882,0,0,0-1.536,0,3.082,3.082,0,0,0-.248,1.426,3.122,3.122,0,0,0,.248,1.439.888.888,0,0,0,1.543,0Z" transform="translate(-157.236 -408.139)" fill="#3f3d56"/>
    <path id="Caminho_534" data-name="Caminho 534" d="M438.444,165.813l-.346-.092,7.557-28.43h43.836v.358H445.931Z" transform="translate(-310.035 -97.158)" fill="#2f2e41"/>
    <path id="Caminho_535" data-name="Caminho 535" d="M774.3,250.467a3.761,3.761,0,1,1,3.761-3.761,3.761,3.761,0,0,1-3.761,3.761Zm0-7.164a3.4,3.4,0,1,0,3.4,3.4,3.4,3.4,0,0,0-3.4-3.4Z" transform="translate(-591.259 -206.394)" fill="#2f2e41"/>
    <circle id="Elipse_194" data-name="Elipse 194" cx="1.433" cy="1.433" r="1.433" transform="translate(181.605 38.879)" fill="#00bfa6"/>
    <path id="Caminho_536" data-name="Caminho 536" d="M126.373,330.343l.346.092-7.558,28.429H75.326v-.358h43.561Z" transform="translate(-53.307 -233.778)" fill="#2f2e41"/>
    <path id="Caminho_537" data-name="Caminho 537" d="M211.2,532.342a3.761,3.761,0,1,1-3.761,3.761A3.761,3.761,0,0,1,211.2,532.342Zm0,7.164a3.4,3.4,0,1,0-3.4-3.4,3.4,3.4,0,0,0,3.4,3.4Z" transform="translate(-192.767 -411.196)" fill="#2f2e41"/>
    <circle id="Elipse_195" data-name="Elipse 195" cx="1.433" cy="1.433" r="1.433" transform="translate(17.004 123.475)" fill="#00bfa6"/>
  </g>
</svg>