<svg xmlns="http://www.w3.org/2000/svg" width="171.635" height="130.63" viewBox="0 0 171.635 130.63">
  <g id="undraw_step_to_the_sun_nxqq" transform="translate(0 0.007)">
    <path id="Caminho_90" data-name="Caminho 90" d="M712.848,97.258a14.2,14.2,0,0,0,1.207-1.543l-7.664-1.792,8.377.624a14.184,14.184,0,0,0,1.02-11.176l-11.636,5.08,10.881-6.928A14.16,14.16,0,1,0,690.639,95.77a14.169,14.169,0,0,0-1.784,2.468l9.709,5.9L688.08,99.82a14.167,14.167,0,0,0,1.389,13.419,14.161,14.161,0,0,0,6.981,23.191,4.871,4.871,0,0,0-.389,1.622,4.665,4.665,0,0,0,.457,2.4,4.841,4.841,0,0,0-.316,4.719,4.841,4.841,0,0,0-.316,4.719,4.841,4.841,0,0,0-.316,4.719,4.665,4.665,0,0,0-.774,2.318c-.143,2.132,1.062,3.949,2.691,4.059s3.065-1.531,3.208-3.663a4.665,4.665,0,0,0-.457-2.4,4.841,4.841,0,0,0,.316-4.719,4.841,4.841,0,0,0,.316-4.719,4.841,4.841,0,0,0,.316-4.719,4.665,4.665,0,0,0,.774-2.318,4.868,4.868,0,0,0-.176-1.683,14.161,14.161,0,0,0,9.893-22.037,14.161,14.161,0,0,0,1.171-17.469Z" transform="translate(-585.338 -72.654)" fill="#f2f2f2"/>
    <path id="Caminho_91" data-name="Caminho 91" d="M626.359,574.081c0,2.088-14.721,9.241-32.26,9.241s-31.252-7.153-31.252-9.241,13.713,1.68,31.252,1.68S626.359,571.993,626.359,574.081Z" transform="translate(-483.382 -487.038)" fill="#3f3d56"/>
    <path id="Caminho_92" data-name="Caminho 92" d="M626.359,574.081c0,2.088-14.721,9.241-32.26,9.241s-31.252-7.153-31.252-9.241,13.713,1.68,31.252,1.68S626.359,571.993,626.359,574.081Z" transform="translate(-483.382 -487.038)" opacity="0.1"/>
    <ellipse id="Elipse_26" data-name="Elipse 26" cx="31.756" cy="3.78" rx="31.756" ry="3.78" transform="translate(79.466 83.262)" fill="#3f3d56"/>
    <ellipse id="Elipse_27" data-name="Elipse 27" cx="10.77" cy="3.077" rx="10.77" ry="3.077" transform="translate(101.203 84.455)" opacity="0.1"/>
    <path id="Caminho_93" data-name="Caminho 93" d="M741.142,430.23a4.664,4.664,0,0,0,.617-2.365c0-2.137-1.323-3.87-2.956-3.87s-2.956,1.732-2.956,3.87a4.666,4.666,0,0,0,.617,2.365,4.841,4.841,0,0,0,0,4.73,4.841,4.841,0,0,0,0,4.73,4.841,4.841,0,0,0,0,4.73,4.666,4.666,0,0,0-.617,2.365c0,2.137,1.323,3.87,2.956,3.87s2.956-1.732,2.956-3.87a4.664,4.664,0,0,0-.617-2.365,4.84,4.84,0,0,0,0-4.73,4.84,4.84,0,0,0,0-4.73A4.84,4.84,0,0,0,741.142,430.23Z" transform="translate(-626.806 -363.133)" fill="#3f3d56"/>
    <ellipse id="Elipse_28" data-name="Elipse 28" cx="2.956" cy="3.87" rx="2.956" ry="3.87" transform="translate(109.041 56.133)" fill="#3f3d56"/>
    <ellipse id="Elipse_29" data-name="Elipse 29" cx="2.956" cy="3.87" rx="2.956" ry="3.87" transform="translate(109.041 51.404)" fill="#3f3d56"/>
    <path id="Caminho_94" data-name="Caminho 94" d="M695.23,90.842a14.175,14.175,0,0,0,1.1-1.62l-7.767-1.276,8.4.062a14.184,14.184,0,0,0,.27-11.219l-11.27,5.846L696.358,75a14.16,14.16,0,1,0-23.386,15.846,14.165,14.165,0,0,0-1.615,2.582l10.082,5.238-10.751-3.608a14.168,14.168,0,0,0,2.283,13.3,14.159,14.159,0,1,0,22.258,0,14.161,14.161,0,0,0,0-17.509Z" transform="translate(-572.167 -67.934)" fill="#00bfa6"/>
    <path id="Caminho_95" data-name="Caminho 95" d="M669.942,252.168a14.1,14.1,0,0,0,3.03,8.754,14.159,14.159,0,1,0,22.258,0C697.128,258.513,669.942,250.579,669.942,252.168Z" transform="translate(-572.168 -220.506)" opacity="0.1"/>
    <path id="Caminho_96" data-name="Caminho 96" d="M959.2,318.689l3.189-2.844c-6.331-1.178-12.685,4.392-14.343,12.5a1.642,1.642,0,0,0-.164.041l-3.6-11.795a20.512,20.512,0,0,0-.351,4.257l-2.8-5.446c-1.133,6.092,1.565,11.753,6.1,13.11a7.76,7.76,0,0,1-1.13-.081l-.029,0a3.635,3.635,0,0,0,.026.9.809.809,0,0,0,.2.449,3.886,3.886,0,0,0,1.04.472l.12.041c.326.109.693.219,1.073.321.474.127.967.24,1.418.32.049.009.094.014.136.018h.039c.027,0,.054,0,.079,0l.038,0a.6.6,0,0,0,.062-.009l.033-.008a.393.393,0,0,0,.051-.018l.026-.012a.3.3,0,0,0,.043-.029l.017-.013a.277.277,0,0,0,.042-.048l0,0a.311.311,0,0,0,.033-.066v0a.4.4,0,0,0,.017-.069v0h0c.082-.544-.679-1.694-.689-2.02s-.774-.4-1.4-.353l11.735-9.473A8.88,8.88,0,0,0,959.2,318.689Z" transform="translate(-796.781 -273.103)" fill="#f2f2f2"/>
    <path id="Caminho_97" data-name="Caminho 97" d="M893.158,398.979c0,1.416-9.982,6.266-21.874,6.266s-21.19-4.85-21.19-6.266,9.3,1.139,21.19,1.139S893.158,397.564,893.158,398.979Z" transform="translate(-721.523 -342.039)" fill="#3f3d56"/>
    <path id="Caminho_98" data-name="Caminho 98" d="M893.158,398.979c0,1.416-9.982,6.266-21.874,6.266s-21.19-4.85-21.19-6.266,9.3,1.139,21.19,1.139S893.158,397.564,893.158,398.979Z" transform="translate(-721.523 -342.039)" opacity="0.1"/>
    <ellipse id="Elipse_30" data-name="Elipse 30" cx="21.532" cy="2.563" rx="21.532" ry="2.563" transform="translate(128.571 54.378)" fill="#3f3d56"/>
    <ellipse id="Elipse_31" data-name="Elipse 31" cx="4.616" cy="1.539" rx="4.616" ry="1.539" transform="translate(145.479 55.393)" opacity="0.1"/>
    <path id="Caminho_99" data-name="Caminho 99" d="M919.859,326.4c0,6.532,4.1,11.818,9.162,11.818" transform="translate(-779.361 -282.224)" fill="#3f3d56"/>
    <path id="Caminho_100" data-name="Caminho 100" d="M973.457,337.579c0-6.606,4.573-11.951,10.225-11.951" transform="translate(-823.797 -281.581)" fill="#00bfa6"/>
    <path id="Caminho_101" data-name="Caminho 101" d="M939.279,329.868c0,6.205,2.613,11.226,5.843,11.226" transform="translate(-795.462 -285.096)" fill="#00bfa6"/>
    <path id="Caminho_102" data-name="Caminho 102" d="M973.457,321.479c0-8.441,5.286-15.271,11.818-15.271" transform="translate(-823.797 -265.481)" fill="#3f3d56"/>
    <path id="Caminho_103" data-name="Caminho 103" d="M962.181,392.619a4.763,4.763,0,0,0,1.691-.319c.392-.279,2-.612,2.1-.165s1.953,2.224.486,2.236a12.426,12.426,0,0,1-3.8-.467C962.263,393.667,962.181,392.619,962.181,392.619Z" transform="translate(-814.448 -336.538)" fill="#a8a8a8"/>
    <path id="Caminho_104" data-name="Caminho 104" d="M966.48,397.613a12.426,12.426,0,0,1-3.8-.467c-.3-.181-.416-.832-.456-1.132l-.043,0s.082,1.048.473,1.286a12.426,12.426,0,0,0,3.8.467c.423,0,.57-.154.562-.377C966.957,397.526,966.8,397.611,966.48,397.613Z" transform="translate(-814.449 -339.935)" opacity="0.2"/>
    <path id="Caminho_105" data-name="Caminho 105" d="M286.21,172.86l1.648,2.611c-.552.738-.943,1.54-.692,2.071a21.974,21.974,0,0,0,2.8,3.9c.759.9.864,3.315,6.011,3.026s7.229-2.618,7.229-2.618.456,4.226,2.644,5.738a1.823,1.823,0,0,1-.722.59c-2.312,1.079-4.835,9.7-6.584,14.437-1.908,5.167.992,4.266.992,4.266.971.016,1.864.067,2.683.145.953,2.523,2.464,7.917.692,13.473a23.456,23.456,0,0,0-.425,11.065l-1.157,1.238a2.745,2.745,0,0,0-1.672,1.215l-2.969,4.134.492.356,1.78-2.46a5.054,5.054,0,0,1,.921,1.438c.533,1.091-.983,5.351-1.01,5.662a6.159,6.159,0,0,0,3.278,3.209,1,1,0,0,0,.413.063l-.176,2.048,1.047-.014.322-3.735s.807,5.191.97,5.728,1.841.472,3.6.728,3.5-1.789,1.712-2.884-2.011-4.563-2.011-4.563c.846-2.54-1.065-5.841-1.065-5.841l-.219-2.318a.689.689,0,0,1-.451.386l.261-3.034c1.994-2.294,4.6-5.356,5.951-7.2,2.37-3.245,2.243-4.2,2.243-4.2l2.43-10.774a12.855,12.855,0,0,0,2.422-.045c1.644-.248,1.031-5.649.08-10,.249-1.032.644-2.452,1.265-4.4a13.778,13.778,0,0,0,.586-2.891,16.65,16.65,0,0,0-1.594-8.526l.207-.521s1.9-2.074.413-5.582a8.092,8.092,0,0,0,.176-1.127,8.435,8.435,0,0,0-1.065-4.819c-.01-.017-.02-.034-.03-.05l-.011-.017h0a.549.549,0,0,0-.044-.056c-.6-.615-3.682-1.778-4.309-2.011a.3.3,0,0,0-.113-.042c-.231-.02.012-1.033.273-1.929a4.395,4.395,0,0,0,.854-.88,8.328,8.328,0,0,0,2.563-13.777,4.376,4.376,0,0,0-1.419-6.365,4.375,4.375,0,0,1,.814,5.847q-.14-.109-.285-.212a4.374,4.374,0,1,0-8.41-.724,8.329,8.329,0,0,0-1.469,14.136,5.8,5.8,0,0,1-5.284-.194,5.808,5.808,0,0,0,6.112.809,4.392,4.392,0,0,0,1.578,1.65,2.6,2.6,0,0,1-.281.565l-.266-.212-1.154,1.26-2.977.58a8.052,8.052,0,0,0-4.071,2.367,16.007,16.007,0,0,1-5.812,3.158l-2.861-.769s-3.29-1.851-3.254-2.266c.006-.066-.073-.046-.207.039l-1.609-3.226s-3.015-7.472-4.949-5.652S286.21,172.86,286.21,172.86Zm21.241,49.526.074-.863c.976-1.378,1.523-4.776,1.828-7.925l-.444,7.626a5.146,5.146,0,0,0-1.459,1.162Zm-3.981,16.134-.016,1.154a7.111,7.111,0,0,0-.7,1.8,8.311,8.311,0,0,1,.72-2.952Z" transform="translate(-251.039 -133.864)" fill="#f2f2f2"/>
    <path id="Caminho_106" data-name="Caminho 106" d="M203.335,737.341c0,3.463-24.416,15.326-53.5,15.326S98,740.8,98,737.341s22.744,2.787,51.832,2.787S203.335,733.879,203.335,737.341Z" transform="translate(-98 -622.045)" fill="#3f3d56"/>
    <path id="Caminho_107" data-name="Caminho 107" d="M203.335,737.341c0,3.463-24.416,15.326-53.5,15.326S98,740.8,98,737.341s22.744,2.787,51.832,2.787S203.335,733.879,203.335,737.341Z" transform="translate(-98 -622.045)" opacity="0.1"/>
    <ellipse id="Elipse_32" data-name="Elipse 32" cx="52.668" cy="6.27" rx="52.668" ry="6.27" transform="translate(0 109.026)" fill="#3f3d56"/>
    <ellipse id="Elipse_33" data-name="Elipse 33" cx="17.437" cy="3.761" rx="17.437" ry="3.761" transform="translate(35.558 110.44)" opacity="0.1"/>
    <path id="Caminho_108" data-name="Caminho 108" d="M369,212.52a5.8,5.8,0,0,0-.206-9.389,5.8,5.8,0,1,1-5.695,10.057A5.8,5.8,0,0,0,369,212.52Z" transform="translate(-317.781 -180.025)" fill="#2f2e41"/>
    <path id="Caminho_109" data-name="Caminho 109" d="M454.8,289.693h.937a8.344,8.344,0,0,1,1.25,6.873c-1.041,3.957-.208,4.686-.208,4.686a16.056,16.056,0,0,1,2.291,11.768c-1.458,6.457-1.041,7.186-1.041,7.186l-2.6-5.207-1.458-13.747Z" transform="translate(-393.112 -251.789)" fill="#00bfa6"/>
    <path id="Caminho_110" data-name="Caminho 110" d="M454.8,289.725h.937a8.344,8.344,0,0,1,1.25,6.873c-1.041,3.957-.208,4.686-.208,4.686a16.056,16.056,0,0,1,2.291,11.768c-1.458,6.457-1.041,7.186-1.041,7.186l-2.6-5.207-1.458-13.747Z" transform="translate(-393.112 -251.816)" opacity="0.1"/>
    <circle id="Elipse_34" data-name="Elipse 34" cx="8.331" cy="8.331" r="8.331" transform="translate(46.741 17.544)" fill="#2f2e41"/>
    <path id="Caminho_111" data-name="Caminho 111" d="M411.871,260.066s-.833,3.333-.417,3.333,1.875,1.77,1.875,1.77l.937,3.437-.729,2.5-2.5-.521-3.124-3.437-.937-.937-.833-3.02s1.041-1.25.312-2.291S411.871,260.066,411.871,260.066Z" transform="translate(-353.466 -227.212)" fill="#fbbebe"/>
    <path id="Caminho_112" data-name="Caminho 112" d="M411.871,260.066s-.833,3.333-.417,3.333,1.875,1.77,1.875,1.77l.937,3.437-.729,2.5-2.5-.521-3.124-3.437-.937-.937-.833-3.02s1.041-1.25.312-2.291S411.871,260.066,411.871,260.066Z" transform="translate(-353.466 -227.212)" opacity="0.1"/>
    <path id="Caminho_113" data-name="Caminho 113" d="M258.517,277.151l-2.291-3.749s-2.473-5.472-4.243-3.493,2.681,5.993,2.681,5.993l2.291,3.02Z" transform="translate(-225.314 -235.029)" fill="#fbbebe"/>
    <path id="Caminho_114" data-name="Caminho 114" d="M407.482,492.415,405.816,504.6s.208.937-1.875,4.374-7.706,10.935-7.706,10.935l-1.666-3.124s1.979-9.893,5.415-11.976l-.417-15Z" transform="translate(-343.87 -417.697)" fill="#fbbebe"/>
    <path id="Caminho_115" data-name="Caminho 115" d="M407.482,492.415,405.816,504.6s.208.937-1.875,4.374-7.706,10.935-7.706,10.935l-1.666-3.124s1.979-9.893,5.415-11.976l-.417-15Z" transform="translate(-343.87 -417.697)" opacity="0.1"/>
    <path id="Caminho_116" data-name="Caminho 116" d="M368.811,640.28l2.291,4.374s-1.875,5.311-1.146,5.832,1.666,5.207-.312,4.686a6.159,6.159,0,0,1-3.541-2.916c0-.312,1.146-4.686.521-5.728a5.056,5.056,0,0,0-1.041-1.354l-1.562,2.6-.521-.312,2.6-4.374a2.745,2.745,0,0,1,1.562-1.354Z" transform="translate(-318.112 -542.443)" fill="#2f2e41"/>
    <path id="Caminho_117" data-name="Caminho 117" d="M368.811,640.28l2.291,4.374s-1.875,5.311-1.146,5.832,1.666,5.207-.312,4.686a6.159,6.159,0,0,1-3.541-2.916c0-.312,1.146-4.686.521-5.728a5.056,5.056,0,0,0-1.041-1.354l-1.562,2.6-.521-.312,2.6-4.374a2.745,2.745,0,0,1,1.562-1.354Z" transform="translate(-318.112 -542.443)" opacity="0.1"/>
    <path id="Caminho_118" data-name="Caminho 118" d="M383.936,490.687s.809,11.518-.962,14.538v15l-2.4.312s-4.061-8.123-2.291-15.934-2.6-14.788-2.6-14.788Z" transform="translate(-328.214 -417.697)" fill="#fbbebe"/>
    <circle id="Elipse_35" data-name="Elipse 35" cx="4.374" cy="4.374" r="4.374" transform="translate(50.751 26.657)" fill="#fbbebe"/>
    <path id="Caminho_119" data-name="Caminho 119" d="M305.9,281.954l-4.374-5.519-2.5-1.666-1.041,1.354-2.916.833a8.052,8.052,0,0,0-3.853,2.708,16.006,16.006,0,0,1-5.519,3.645l-2.916-.521s-3.437-1.562-3.437-1.979-3.02,2.812-2.291,4.061a21.971,21.971,0,0,0,3.124,3.645c.833.833,1.146,3.228,6.248,2.5s6.977-3.228,6.977-3.228.937,4.79,3.645,5.728,11.56,1.562,11.56,1.562l1.875-6.248s2.083-2.708-.729-6.665a26.119,26.119,0,0,0-.356-3.686,2.435,2.435,0,0,0-.477-1.209c-.729-.625-4.582-1.666-4.582-1.666s.625,2.083.937,2.187S306.318,281.433,305.9,281.954Z" transform="translate(-246.35 -239.416)" fill="#00bfa6"/>
    <path id="Caminho_120" data-name="Caminho 120" d="M355.815,401.038c5.245-.365,8.3.495,9.66,1.15a3.452,3.452,0,0,1,.71.431c.1.084.148.15.148.19,0,.312,7.186.937,9.789.312s-1.77-14.059-2.916-15.2-.528-5.338-.528-5.338a10.411,10.411,0,0,0-2.909-.285,11.95,11.95,0,0,1-5-.937c-1.146-.625-2.6-.208-3.541-.417a.589.589,0,0,0-.735.266,1.8,1.8,0,0,1-.712.72c-2.211,1.274-3.985,10.08-5.322,14.948C353,402.184,355.815,401.038,355.815,401.038Z" transform="translate(-310.271 -327.414)" fill="#2f2e41"/>
    <path id="Caminho_121" data-name="Caminho 121" d="M403.689,662.211l.417,2.291s2.187,3.124,1.562,5.728c0,0,.521,3.437,2.4,4.374s.312,3.124-1.458,3.02-3.437.1-3.645-.417-1.458-5.624-1.458-5.624v3.749l-1.041.1V670.75s-.833-1.562.312-4.166l-.289-4S403.376,663.252,403.689,662.211Z" transform="translate(-348.512 -560.625)" fill="#2f2e41"/>
    <circle id="Elipse_36" data-name="Elipse 36" cx="4.374" cy="4.374" r="4.374" transform="translate(50.699 13.17)" fill="#2f2e41"/>
    <path id="Caminho_122" data-name="Caminho 122" d="M418.265,151.82a4.374,4.374,0,0,0-.155-7.078,4.374,4.374,0,1,1-4.293,7.582A4.373,4.373,0,0,0,418.265,151.82Z" transform="translate(-359.827 -131.618)" fill="#2f2e41"/>
    <ellipse id="Elipse_37" data-name="Elipse 37" cx="4.478" cy="3.541" rx="4.478" ry="3.541" transform="translate(50.699 24.001)" fill="#2f2e41"/>
    <path id="Caminho_123" data-name="Caminho 123" d="M420.922,474.284a3.455,3.455,0,0,1,.71.431c.055-.984.374-6.936-.008-6.84Z" transform="translate(-365.718 -399.51)" opacity="0.1"/>
    <circle id="Elipse_38" data-name="Elipse 38" cx="14.702" cy="14.702" r="14.702" transform="translate(3.761 10.262)" fill="#ff6584"/>
    <ellipse id="Elipse_39" data-name="Elipse 39" cx="0.513" cy="1.197" rx="0.513" ry="1.197" transform="translate(25.88 36.55) rotate(-65.099)" fill="#fbbebe"/>
  </g>
</svg>
