<svg xmlns="http://www.w3.org/2000/svg" width="194.172" height="158.183" viewBox="0 0 194.172 158.183">
  <g id="undraw_online_resume_qyys" transform="translate(0 0)">
    <path id="Caminho_74" data-name="Caminho 74" d="M321.281,193.531,215.155,223.624l96.827-54.558a97.221,97.221,0,0,0-16.458-22.033l-93.944,51.7,78.647-64.22a96.314,96.314,0,0,0-37.347-14.682l-43.563,72.731,28.852-74.036c-.43-.006-.859-.012-1.29-.012A96.9,96.9,0,0,0,144,265.585H309.762a97.187,97.187,0,0,0,11.519-72.054Z" transform="translate(-129.588 -107.608)" fill="#f2f2f2"/>
    <rect id="Retângulo_30" data-name="Retângulo 30" width="140.281" height="76.517" transform="translate(27.151 81.46)" fill="#3f3d56"/>
    <rect id="Retângulo_31" data-name="Retângulo 31" width="87.83" height="0.411" transform="translate(51.834 90.305)" fill="#2f2e41"/>
    <rect id="Retângulo_32" data-name="Retângulo 32" width="32.043" height="3.641" transform="translate(43.401 110.797)" fill="#00bfa6"/>
    <rect id="Retângulo_33" data-name="Retângulo 33" width="53.891" height="2.185" transform="translate(43.401 116.988)" fill="#f2f2f2"/>
    <rect id="Retângulo_34" data-name="Retângulo 34" width="50.978" height="2.185" transform="translate(43.401 121.721)" fill="#f2f2f2"/>
    <rect id="Retângulo_35" data-name="Retângulo 35" width="37.141" height="2.185" transform="translate(43.401 126.455)" fill="#f2f2f2"/>
    <path id="Caminho_75" data-name="Caminho 75" d="M819.108,753.183c0-6.616-3.357-11.98-7.5-11.98-2.6,0-4.9,2.12-6.24,5.337a3.759,3.759,0,0,0-1.433-.288,4.493,4.493,0,0,0-3.358,1.729c-1.212-4.011-3.782-6.779-6.757-6.779-2.781,0-5.207,2.421-6.5,6.014a4.1,4.1,0,0,0-2.567-.965c-3.178,0-5.755,4.116-5.755,9.194a13.4,13.4,0,0,0,.907,4.951H817.6A17.04,17.04,0,0,0,819.108,753.183Z" transform="translate(-645.094 -602.214)" fill="#00bfa6"/>
    <circle id="Elipse_21" data-name="Elipse 21" cx="9.669" cy="9.669" r="9.669" transform="translate(31.634 7.542)" fill="#ff6584"/>
    <path id="Caminho_76" data-name="Caminho 76" d="M276.312,237.708a1.824,1.824,0,0,1,2.154.549c.859,1.072,2.031,3.425,1.581,8.039L278.3,264.17l-.277,18.016s-2.621,8.306-6.458,8.228,3.178-7.956,3.178-7.956-.973-14.293-.573-18.395C274.546,260.239,270.856,240.081,276.312,237.708Z" transform="translate(-241.126 -202.165)" fill="#ffb8b8"/>
    <path id="Caminho_77" data-name="Caminho 77" d="M316.712,185.106l2.2,5.962-3.145.971-.442,8.652,7.8-4.2,3.927-4.327.49-3.321s-3.028-.525-4.129-7.212Z" transform="translate(-276.795 -157.741)" fill="#ffb8b8"/>
    <path id="Caminho_78" data-name="Caminho 78" d="M208.6,440.688s-13.757,13.812-10.212,21.1,20.845,32.777,20.845,32.777l4.628-5.894s-4.549-3.307-6.668-11.058-6.914-13.1-8.329-15.01,13.289-15.239,11.99-18.64S208.6,440.688,208.6,440.688Z" transform="translate(-183.449 -363.512)" fill="#ffb8b8"/>
    <path id="Caminho_79" data-name="Caminho 79" d="M208.6,440.688s-13.757,13.812-10.212,21.1,20.845,32.777,20.845,32.777l4.628-5.894s-4.549-3.307-6.668-11.058-6.914-13.1-8.329-15.01,13.289-15.239,11.99-18.64S208.6,440.688,208.6,440.688Z" transform="translate(-183.449 -363.512)" opacity="0.1"/>
    <path id="Caminho_80" data-name="Caminho 80" d="M288.126,661.895s-1.437,2.842-1,3.976,2.7,7.681,2.7,7.681-2.417,9.483-.664,9.272,8.1-6.608,7.819-8.947l-.809-6.723,1.965,1.543,2.5-3.859-3.485-4.325s-3.743-4-4.912-3.857S288.126,661.895,288.126,661.895Z" transform="translate(-254.327 -535.055)" fill="#2f2e41"/>
    <path id="Caminho_81" data-name="Caminho 81" d="M251.865,445.491l-.923,2.187-3.876,17.071s-1.543,1.965-1.061,8.43-7.777,31.477-7.777,31.477l-.279,5.074,4.969-.6,3.389-6.338a43.087,43.087,0,0,1,4.988-12.757c3.716-6.081,3.711-20.906,3.711-20.906l10-22.849-7.87-3.8Z" transform="translate(-215.333 -364.939)" fill="#ffb8b8"/>
    <path id="Caminho_82" data-name="Caminho 82" d="M201.557,729.3s-1.5-.116-1.719.5-4.7,12.722-4.7,12.722-8.509,8.14-4.347,8.232,11.142-1.044,12.322-3.558,2.547-5.94,2.547-5.94l.422,3.507,3.3-2.176s1.844-11.786-.308-12.416A48.186,48.186,0,0,0,201.557,729.3Z" transform="translate(-176.969 -592.752)" fill="#2f2e41"/>
    <path id="Caminho_83" data-name="Caminho 83" d="M249.515,389.2s-3.483,3.088-3.156,3.345-1.976.831-1.543,1.965-1.951,3.5-.782,3.356a10.656,10.656,0,0,1,10.722,2.861l.877-.106-.116,1.5s3.635-4.292,13.025,2.288c0,0,3.11-1.264,2.677-2.4s5.05-2.387,2.09-9.74-12.126-7.14-12.126-7.14Z" transform="translate(-219.908 -319.381)" fill="#2f2e41"/>
    <path id="Caminho_84" data-name="Caminho 84" d="M286.872,212.869s1.508-2.257,2.42-2.07,5.9.074,6.694,1.758S292.992,231.7,293.6,234.3s3.842,22.073,1.06,23.594-6.035-5.8-6.035-5.8-8.747-3.692-16.17-1.316-5.145-.864-5.145-.864,5.318-5.088,4.509-11.81-1.171-7.272.2-10.7c0,0,.244-5.367.068-6.828s-1.264-3.11-.457-3.8,9.177-2.587,9.177-2.587-4.244,1.7-2.314,2.947S286.872,212.869,286.872,212.869Z" transform="translate(-238.394 -180.9)" fill="#3f3d56"/>
    <circle id="Elipse_22" data-name="Elipse 22" cx="7.065" cy="7.065" r="7.065" transform="translate(33.973 14.828)" fill="#ffb8b8"/>
    <path id="Caminho_85" data-name="Caminho 85" d="M385.475,214.9a1.824,1.824,0,0,0-2.141.6c-.834,1.091-1.953,3.47-1.4,8.073l2.145,17.829.684,18.005s-.442,8.652,3.393,8.487-.108-8.289-.108-8.289.65-14.311.158-18.4C387.749,237.383,390.983,217.147,385.475,214.9Z" transform="translate(-329.586 -184.06)" fill="#ffb8b8"/>
    <path id="Caminho_86" data-name="Caminho 86" d="M337.887,65.483a5.285,5.285,0,0,1-3.05,2.1c-2.133.571-.017,3.776-.017,3.776a1.974,1.974,0,0,1,.34-2.4C336.27,67.722,338.055,66.878,337.887,65.483Z" transform="translate(-291.536 -65.483)" fill="#ff6584"/>
    <circle id="Elipse_23" data-name="Elipse 23" cx="2.695" cy="2.695" r="2.695" transform="translate(40.211 3.946)" fill="#ff6584"/>
    <path id="Caminho_87" data-name="Caminho 87" d="M323.444,97.75a19.077,19.077,0,0,0-7.737-.964l.258-1.885a14.784,14.784,0,0,0,7.737.964Z" transform="translate(-277.098 -88.85)" fill="#3f3d56"/>
    <path id="Caminho_88" data-name="Caminho 88" d="M286.258,112.031a15.867,15.867,0,0,1-9.155,6.294c-6.4,1.714-.052,11.335-.052,11.335a5.925,5.925,0,0,1,1.021-7.2C281.4,118.752,286.762,116.219,286.258,112.031Z" transform="translate(-244.163 -102.457)" fill="#ff6584"/>
    <path id="Caminho_89" data-name="Caminho 89" d="M333.453,110.678s2.645,6.29,5.549,6.885,2.683,10.534-1.857,12.024c0,0,3.311-5.827.481-9.734S333.007,112.856,333.453,110.678Z" transform="translate(-291.139 -101.382)" fill="#ff6584"/>
    <rect id="Retângulo_36" data-name="Retângulo 36" width="191.497" height="0.411" transform="translate(0 157.771)" fill="#2f2e41"/>
    <rect id="Retângulo_37" data-name="Retângulo 37" width="9.256" height="3.497" transform="translate(153.856 83.929)" fill="#00bfa6"/>
    <circle id="Elipse_24" data-name="Elipse 24" cx="11.725" cy="11.725" r="11.725" transform="translate(132.462 106.011)" fill="#00bfa6" opacity="0.4"/>
    <circle id="Elipse_25" data-name="Elipse 25" cx="8.225" cy="8.225" r="8.225" transform="translate(114.262 115.112)" fill="#00bfa6" opacity="0.4"/>
  </g>
</svg>