<svg id="undraw_personal_information_962o" xmlns="http://www.w3.org/2000/svg" width="168.628" height="116.932" viewBox="0 0 168.628 116.932">
  <path id="Caminho_1" data-name="Caminho 1" d="M52,70v56.62h56.62V70Zm28.771,55.389a1.539,1.539,0,1,1,1.539-1.539A1.539,1.539,0,0,1,80.771,125.389Z" transform="translate(-52 -70)" fill="#00bfa6"/>
  <path id="Caminho_2" data-name="Caminho 2" d="M589.546,220.773a50.769,50.769,0,1,1-21.231-41.3A50.788,50.788,0,0,1,589.546,220.773Z" transform="translate(-420.918 -154.614)" fill="#00bfa6"/>
  <path id="Caminho_3" data-name="Caminho 3" d="M884.852,144.7l4.41-1.375.38-3.884s-10.725-4.051-14.154,3.115a11.372,11.372,0,0,1-4.2,4.957,7.751,7.751,0,0,1-6.745.581c-7.433-2.715-9.184,5.005-9.184,5.005s.643,1.1,5.224,1.369c2.28.134,4.146,1.85,5.445,3.54a5.687,5.687,0,0,0,9.9-1.771q.034-.105.067-.213c2.192-7.18,12.17-1.463,12.17-1.463l.637-6.5Z" transform="translate(-731.753 -127.792)" fill="#2f2e41"/>
  <circle id="Elipse_7" data-name="Elipse 7" cx="5.401" cy="5.401" r="5.401" transform="translate(117.652 23.682)" fill="#2f2e41"/>
  <circle id="Elipse_8" data-name="Elipse 8" cx="14.402" cy="14.402" r="14.402" transform="translate(105.95 29.083)" fill="#2f2e41"/>
  <circle id="Elipse_9" data-name="Elipse 9" cx="9.902" cy="9.902" r="9.902" transform="translate(110.001 38.834)" fill="#a0616a"/>
  <path id="Caminho_4" data-name="Caminho 4" d="M805.955,428.911l1.8,9.6,9-1.2s-1.5-7.5-.6-9.6Z" transform="translate(-689.953 -372.674)" fill="#a0616a"/>
  <path id="Caminho_5" data-name="Caminho 5" d="M455.992,659.223s-10.2-6-11.1-1.8,10.2,6,10.2,6Z" transform="translate(-384.398 -565.78)" fill="#a0616a"/>
  <path id="Caminho_6" data-name="Caminho 6" d="M862.092,278.181s-7.2-5.4-10.2-3.3,8.1,9,9.3,8.4S862.092,278.181,862.092,278.181Z" transform="translate(-728.387 -242.948)" fill="#a0616a"/>
  <path id="Caminho_7" data-name="Caminho 7" d="M722.25,456.963l-10.8,1.8v4.8s-10.2,3.3-10.2,4.8-2.7,7.2-2.7,7.2-6.6,4.8-1.2,10.5c0,0,2.1,3.3.6,3.6s-4.8,1.2-3.3,2.4,24,9.3,25.8,8.7,15.6-21.9,15.6-27.3-5.7-13.2-5.7-13.2l-6.6-.9Z" transform="translate(-595.447 -397.426)" fill="#d0cde1"/>
  <path id="Caminho_8" data-name="Caminho 8" d="M539.236,529s-4.2-.6-5.7,4.5-6.6,21.6-6.6,21.6-18.3-.3-23.1-4.8l-2.1,6.9s27.6,9.9,30,8.1,12.9-30.9,12.9-30.9Z" transform="translate(-432.536 -458.36)" fill="#d0cde1"/>
  <path id="Caminho_9" data-name="Caminho 9" d="M908.939,322.509l.9-.9s11.4-12.3,11.1-15.3c0,0-6-7.5-13.5-5.4,0,0-3.3-8.1,1.8-7.8s24-.9,23.7,7.8-18.3,35.406-18.3,35.406Z" transform="translate(-774.934 -258.772)" fill="#d0cde1"/>
  <path id="Caminho_10" data-name="Caminho 10" d="M687.889,706.745a51.159,51.159,0,0,1-8.293.674,50.538,50.538,0,0,1-25.166-6.667l1.783-3.611,5.676-11.5.252-.509,4.134,1.246,20.769,6.256.057.958Z" transform="translate(-561.742 -590.488)" fill="#2f2e41"/>
  <ellipse id="Elipse_10" data-name="Elipse 10" cx="6.301" cy="9.902" rx="6.301" ry="9.902" transform="translate(108.949 43.86) rotate(-71.208)" fill="#2f2e41"/>
  <path id="Caminho_11" data-name="Caminho 11" d="M235.881,390.609c2.085-3.82,7.079-6.24,11.165-4.059a7.39,7.39,0,0,1,3.765,4.77c.539,2.384-.6,4.657-1.768,6.659-.636,1.087-1.332,2.152-1.859,3.3a5.423,5.423,0,0,0-.524,3.851,5.013,5.013,0,0,0,2.309,2.632,17.206,17.206,0,0,0,3.548,1.584,20.884,20.884,0,0,0,7.921,1.025,21.663,21.663,0,0,0,3.948-.638c1.376-.351,2.726-.8,4.1-1.138,2.3-.572,4.925-.856,7.107.293,2.12,1.116,3.069,3.449,3.362,5.72a13.894,13.894,0,0,1-4.121,11.478,11.554,11.554,0,0,1-5.225,3.048c-1.722.415-3.933.389-5.3-.9-1.529-1.437-1.17-3.74.045-5.256,1.55-1.934,4.176-2.4,6.52-2.445,2.666-.054,5.329.343,7.993.1a12.278,12.278,0,0,0,3.78-.912,9.579,9.579,0,0,0,2.849-1.928,12.52,12.52,0,0,0,3.306-5.94,18.907,18.907,0,0,0,0-8.133,36.671,36.671,0,0,0-1.06-4.078c-.178-.565-1.07-.323-.89.245,1.588,5.035,2.473,10.857-.595,15.531a9.248,9.248,0,0,1-5.53,3.981c-2.655.66-5.441.334-8.14.235-2.567-.093-5.385.007-7.585,1.5a5.656,5.656,0,0,0-2.522,5.76c.526,2.123,2.567,3.2,4.607,3.366a10.019,10.019,0,0,0,6.047-1.668,14.946,14.946,0,0,0,6.749-10.807,12.14,12.14,0,0,0-1.035-6.779,6.636,6.636,0,0,0-2.438-2.717,8.021,8.021,0,0,0-3.473-1.07c-2.761-.254-5.415.694-8.034,1.419a22.279,22.279,0,0,1-4.1.782,20.457,20.457,0,0,1-4.042-.066,19.9,19.9,0,0,1-3.917-.869,15.675,15.675,0,0,1-3.555-1.607,3.551,3.551,0,0,1-1.88-2.753,7.177,7.177,0,0,1,1.256-3.694c1.26-2.214,2.815-4.38,3.144-6.972a7.514,7.514,0,0,0-2.2-6.119A8.273,8.273,0,0,0,243.5,384.8a9.914,9.914,0,0,0-6.3,2.645,10.364,10.364,0,0,0-2.123,2.7c-.285.522.512.988.8.466Z" transform="translate(-206.864 -336.366)" fill="#3f3d56"/>
  <path id="Caminho_12" data-name="Caminho 12" d="M213.942,104a6.738,6.738,0,0,0-3.554,12.463l.06.035a3.691,3.691,0,0,1,6.987,0l.06-.035A6.738,6.738,0,0,0,213.942,104Zm0,9.346a2.391,2.391,0,1,1,2.391-2.391A2.391,2.391,0,0,1,213.942,113.346Z" transform="translate(-183.324 -98.769)" fill="#3f3d56"/>
  <ellipse id="Elipse_11" data-name="Elipse 11" cx="1.5" cy="1" rx="1.5" ry="1" transform="translate(17.628 22.931)" fill="#3f3d56"/>
  <circle id="Elipse_12" data-name="Elipse 12" cx="1.5" cy="1.5" r="1.5" transform="translate(17.628 27.931)" fill="#3f3d56"/>
  <ellipse id="Elipse_13" data-name="Elipse 13" cx="1.5" cy="2" rx="1.5" ry="2" transform="translate(17.628 32.931)" fill="#3f3d56"/>
  <circle id="Elipse_14" data-name="Elipse 14" cx="1.5" cy="1.5" r="1.5" transform="translate(17.628 38.931)" fill="#3f3d56"/>
  <rect id="Retângulo_10" data-name="Retângulo 10" width="17" height="4" rx="2" transform="translate(21.628 32.931)" fill="#3f3d56"/>
  <rect id="Retângulo_11" data-name="Retângulo 11" width="17" height="3" rx="1.5" transform="translate(21.628 38.931)" fill="#3f3d56"/>
  <rect id="Retângulo_12" data-name="Retângulo 12" width="17" height="3" rx="1.5" transform="translate(21.628 27.931)" fill="#3f3d56"/>
  <rect id="Retângulo_13" data-name="Retângulo 13" width="17" height="2" rx="1" transform="translate(21.628 22.931)" fill="#3f3d56"/>
</svg>
